<?xml version="1.0" standalone="no"?>
<!DOCTYPE svg PUBLIC "-//W3C//DTD SVG 1.1//EN" "http://www.w3.org/Graphics/SVG/1.1/DTD/svg11.dtd" >
<svg xmlns="http://www.w3.org/2000/svg">
<metadata></metadata>
<defs>
<font id="GeosansLightRegular" horiz-adv-x="1683" >
<font-face units-per-em="2048" ascent="1638" descent="-410" />
<missing-glyph horiz-adv-x="522" />
<glyph horiz-adv-x="0" />
<glyph horiz-adv-x="2048" />
<glyph horiz-adv-x="741" d="M166 1087q84 -90 223 -90t217 90l-37 46q-76 -76 -178 -76t-182 80z" />
<glyph horiz-adv-x="636" d="M182 1083q2 -31 21 -49q25 -18 47 -18q67 -1 67 67q-16 68 -67 68q-68 -12 -68 -68z" />
<glyph horiz-adv-x="606" d="M143 1102q0 -68 51.5 -119t118.5 -51q68 0 119 51t51 119t-51 119t-119 51t-119 -51.5t-51 -118.5zM186 1104q0 49 39 88t88 39t88 -39t39 -88t-39 -88t-88 -39t-88 39t-39 88z" />
<glyph horiz-adv-x="542" d="M143 -131v-45q0 -55 34 -93t89 -38l39 4l37 12q37 13 55 33v82l-47 -31q-31 -12 -58.5 -12t-41.5 20q-12 27 -12 57t12 64l39 78h-94q-39 -74 -41 -86z" />
<glyph horiz-adv-x="774" d="M137 1145l248 -246l248 246l-43 45l-205 -203l-205 203z" />
<glyph unicode="&#xd;" horiz-adv-x="376" d="M147 0h84v846h-84v-846z" />
<glyph d="M102 731q0 -332 210 -542t542 -209q221 0 395 100l285 -287h113l-330 330q291 209 291 608q0 332 -211 543q-213 209 -544 209t-541 -210t-210 -542zM186 731q0 293 189 481q184 188 479 189q295 0 479 -184.5t191 -462.5l-11 10q-51 51 -118 51q-68 0 -119 -51t-51 -119 t51 -119t113.5 -51t103.5 33q-61 -201 -238 -324l-270 271h-108l309 -312q-147 -80 -332 -80q-293 0 -480 187.5t-188 480.5zM487 645q0 -68 51.5 -119t118.5 -51q68 0 119 51t51 119t-51 119t-119 51t-119 -51t-51 -119zM530 647q0 49 39 88t88 39t88 -39t39 -88t-38.5 -88 t-88.5 -39q-49 0 -88 39t-39 88zM633 612q0 -18 13 -31.5t32 -13.5q18 0 31.5 13.5t13.5 31.5t-13.5 31.5t-31.5 13.5t-31.5 -13.5t-13.5 -31.5zM1268 647q0 49 39 88t88 39t85 -36t42 -79q-2 -12 -3 -25q-3 -44 -39 -79t-85 -35t-88 39t-39 88zM1372 606q0 -18 13.5 -31.5 t31.5 -13.5t31.5 13.5t13.5 31.5t-13 31.5t-32 13.5q-18 0 -31.5 -13.5t-13.5 -31.5z" />
<glyph horiz-adv-x="964" d="M63 762h115v-762h84v762h303v-762h82v762h258v84h-258v485q0 92 -70 144.5t-166.5 52.5t-164.5 -55.5t-68 -151.5v-475h-115v-84zM262 846v461q0 139 152 139t151 -135v-465h-303z" />
<glyph horiz-adv-x="940" d="M63 762h115v-762h84v762h313v-762h82v762h201v84h-201v461q0 131 121 131l68 -6l39 -7v80l-54 8q-20 5 -66 5t-104 -31t-65 -88q-55 76 -172.5 76t-181.5 -61.5t-64 -166.5v-401h-115v-84zM262 846v391q0 156 150 156q55 0 100 -26t63 -69v-452h-313z" />
<glyph unicode=" "  horiz-adv-x="522" />
<glyph unicode="&#x09;" horiz-adv-x="522" />
<glyph unicode="&#xa0;" horiz-adv-x="522" />
<glyph unicode="!" horiz-adv-x="417" d="M137 66q0 -74 74 -74q74 13 74 74q-6 35 -26 54.5t-48 18.5q-74 -12 -74 -73zM168 303h82v1159h-82v-1159z" />
<glyph unicode="&#x22;" horiz-adv-x="552" d="M125 1489l20 -328h43l21 328h-84zM354 1489l23 -328h41l20 328h-84z" />
<glyph unicode="#" horiz-adv-x="1107" d="M66 721h266l-62 -258h49l64 258h287l-68 -268h51l66 268h274l17 51h-279l57 236h265l16 49h-268l61 260h-49l-63 -260h-285l61 260h-49l-63 -260h-285l-16 -49h288l-57 -236h-262zM395 772l56 236h288l-57 -236h-287z" />
<glyph unicode="$" horiz-adv-x="970" d="M74 301q37 -150 144.5 -233.5t258.5 -83.5v-109h82v111q174 0 265 116.5t91 296.5q0 285 -356 424v563q150 -20 217 -143l78 35q-96 190 -295 190v109h-82v-109q-141 0 -233 -97t-92 -243.5t92 -234.5q70 -70 233 -127v-696q-250 0 -319 260zM237.5 1125 q0.5 105 63.5 175.5t176 85.5v-530q-113 45 -166 96q-74 68 -73.5 173zM559 70v663q272 -111 272 -334q0 -141 -66.5 -235t-205.5 -94z" />
<glyph unicode="%" horiz-adv-x="1087" d="M88 1173.5q0 -100.5 77 -177.5t179 -76.5t178 71.5t76 177.5t-76 182.5t-180 76t-180 -75q-74 -78 -74 -178.5zM127 0h82l795 1462h-82zM172 1172.5q0 68.5 50 119.5t120 51t121 -51t51 -120t-51 -119q-59 -49 -124 -49t-116 50t-51 118.5zM497.5 238q0.5 -100 77 -177.5 t179 -77t178.5 72t76 178t-76 182.5t-180 76t-181 -76q-74 -78 -73.5 -178zM582 237q0 69 50 119.5t120 51.5q70 0 121 -51t51 -119t-53.5 -119t-120 -51t-117.5 50t-51 119z" />
<glyph unicode="&#x26;" horiz-adv-x="1232" d="M76 313q0 -143 93 -232t241 -89q213 0 462 201l129 -193h97l-162 244l217 176l-45 59l-213 -174l-320 486l150 102q180 123 180 264t-86 215t-218 74t-219 -81t-87 -204q0 -66 31 -129l61 -104l82 -123l-231 -170q-162 -150 -162 -322zM160 313q0 176 211 333 q53 40 137 97l323 -489q-220 -182 -419 -182q-111 0 -182 66.5t-70 174.5zM375 1161q0 88 65 150q66 59 163 59t161.5 -52.5t64.5 -158.5q-2 -37 -10 -55l-28 -53q-33 -48 -101 -97l-155 -104l-138 213q-23 39 -22 98z" />
<glyph unicode="'" horiz-adv-x="335" d="M125 1462l20 -325h45l21 325h-86z" />
<glyph unicode="(" horiz-adv-x="376" d="M78 709q0 -167 21.5 -294.5t28.5 -162.5l11 -55q8 -39 13.5 -66t14.5 -63q20 -78 64 -195h72q-154 406 -153 836q0 146 26 319q46 306 127 516h-72q-154 -410 -153 -835z" />
<glyph unicode=")" horiz-adv-x="397" d="M111 -127h71q154 396 154 829t-154 842h-71q154 -422 153 -835q0 -161 -26 -326q-49 -298 -127 -510z" />
<glyph unicode="*" horiz-adv-x="591" d="M27 1143q0 -49 43 -49q66 12 114 61l97 92l-39 -135q-6 -16 -6 -65q0 -78 57 -76q49 2 49 80l-10 90l-29 106l100 -96q55 -53 105.5 -53t50.5 43q-12 59 -102 92q-30 15 -144 37l152 47q94 47 94 82q-4 47 -47 47q-102 -23 -209 -156q18 31 19 56l14 63l10 84 q0 78 -53 78q-55 -10 -55 -78l12 -100l31 -103l-97 99q-57 57 -112 57q-45 -12 -45 -51q0 -49 96 -86l67 -25l80 -14q-244 -61 -243 -127z" />
<glyph unicode="+" horiz-adv-x="774" d="M135 500h209v-209h94v209h209v84h-209v209h-94v-209h-209v-84z" />
<glyph unicode="," horiz-adv-x="366" d="M94 -193l27 -18l196 322l-71 30z" />
<glyph unicode="-" horiz-adv-x="555" d="M37 500h432v84h-432v-84z" />
<glyph unicode="." horiz-adv-x="231" d="M37 55q2 -31 20 -49q25 -18 47 -18q68 -1 68 67q-16 68 -68 68q-68 -12 -67 -68z" />
<glyph unicode="/" horiz-adv-x="587" d="M47 0h84l426 1493h-80z" />
<glyph unicode="0" horiz-adv-x="1138" d="M37 744q0 -292 121 -504q147 -260 416 -260t417 258q119 210 119 502t-121 509q-147 260 -416 260q-268 0 -415 -260q-121 -213 -121 -505zM127 755q0 264 120 467t326 203q231 0 353 -237q96 -189 96 -457.5t-113 -454.5q-125 -211 -344 -210.5t-342 237.5 q-96 188 -96 452z" />
<glyph unicode="1" horiz-adv-x="1116" d="M356 1378h248v-1378h84v1462h-276z" />
<glyph unicode="2" horiz-adv-x="1116" d="M125 0h885v84h-701l420 475q57 66 94 110t56 66q133 172 133 348t-125 284t-313.5 108t-311.5 -136q-92 -104 -106 -211h92q23 94 80 158q94 106 244.5 106.5t252.5 -88.5t102.5 -220.5t-85.5 -254.5z" />
<glyph unicode="3" horiz-adv-x="1116" d="M152 309q35 -152 141.5 -235.5t273 -83.5t285.5 111.5t119 293.5q0 307 -287 393q274 61 274 334q0 170 -112.5 271.5t-277.5 101.5t-271 -91t-125 -251h96q51 258 297 258q129 0 211 -81t82 -211t-77 -200.5t-206 -70.5h-86v-121h86q94 0 185 -72q119 -94 119 -260 q0 -133 -96.5 -227t-216 -94t-209 67.5t-115.5 167.5h-90z" />
<glyph unicode="4" horiz-adv-x="1116" d="M94 279h752v-279h86v279h170v81h-170v1123zM244 360l602 863v-863h-602z" />
<glyph unicode="5" horiz-adv-x="1116" d="M55 287q129 -307 477 -307q231 0 376 152t145 387.5t-162 373t-359 125.5l-86 -6l-81 -11l88 377h495v84h-561l-145 -567q76 29 145 29q31 8 49 8h31l65 2q170 6 303 -108t133.5 -306.5t-122.5 -324t-298.5 -132t-265.5 66t-149 187.5z" />
<glyph unicode="6" horiz-adv-x="1116" d="M59 469q0 -221 139.5 -362.5t359.5 -141.5t363.5 143.5t143.5 358.5t-144 359t-360 145l-92 -8l-88 -25l-86 -43l311 567h-96l-367 -657q-46 -89 -58.5 -139t-16.5 -72q-9 -43 -9 -56v-69zM141 465q0 178 123 301t298 123t298 -126t123 -300t-121 -295t-301 -121 t-300 120t-120 298z" />
<glyph unicode="7" horiz-adv-x="1116" d="M49 33l70 -53l973 1482h-1029v-84h873z" />
<glyph unicode="8" horiz-adv-x="1116" d="M135 389q0 -184 121 -300t306 -116t306 117q119 117 119 289t-100 278q-70 76 -180 117q109 35 168.5 128t60.5 208q0 168 -104.5 272.5t-271.5 104.5t-271 -105.5t-105 -271.5q0 -109 60.5 -207t163.5 -129q-129 -49 -201 -150t-72 -235zM217 388q0 138 102 241 q112 108 240 108q134 0 240 -104.5t106 -246.5t-98 -236t-246.5 -94.5t-246 97t-97.5 235.5zM266 1112q0 125 84 209t210 84t210 -84t84 -211t-84 -211q-90 -90 -211 -90q-115 0 -204 89t-89 214z" />
<glyph unicode="9" horiz-adv-x="1116" d="M61 969q0 -217 143.5 -359.5t360.5 -142.5l92 8l88 25l86 43l-290 -527l77 -36l365 653q84 155 84 336q0 217 -142 360t-360 144q-217 0 -360.5 -143.5t-143.5 -360.5zM143 973q0 176 121 297t301 121t300 -120t120 -300t-121 -301t-301 -121t-300 124t-120 300z" />
<glyph unicode=":" horiz-adv-x="333" d="M104 55q2 -31 21 -49q25 -18 47 -18q68 -1 68 67q-16 68 -68 68q-68 -12 -68 -68zM104 659q2 -31 21 -49q25 -18 47 -18q68 -1 68 67q-16 68 -68 68q-68 -12 -68 -68z" />
<glyph unicode=";" horiz-adv-x="417" d="M84 -193l27 -18l196 322l-71 30zM143 659q2 -31 21 -49q25 -18 47 -18q68 -1 68 67q-16 68 -68 68q-68 -12 -68 -68z" />
<glyph unicode="&#x3c;" horiz-adv-x="647" d="M66 539l514 -314v92l-365 222l365 221v92z" />
<glyph unicode="=" horiz-adv-x="606" d="M76 375h463v82h-463v-82zM76 625h463v84h-463v-84z" />
<glyph unicode="&#x3e;" horiz-adv-x="647" d="M94 225l514 314l-514 313v-92l363 -221l-363 -222v-92z" />
<glyph unicode="?" horiz-adv-x="960" d="M94 1210l78 -34q59 102 115 147q94 78 215 78t210 -57t89 -159q0 -137 -127 -237q-39 -30 -99 -76l-174 -129q-143 -106 -143 -239q0 -92 65.5 -145.5t145.5 -47.5l59 4l47 13q49 23 72 45l-49 67q-53 -43 -116.5 -43t-98.5 29t-35 78q0 106 103 180l172 125 q150 107 170 133q92 104 92 243.5t-110.5 218.5t-270.5 79q-297 0 -410 -273zM387 66q12 -72 72 -72q71 0 71 72q-12 72 -71 71q-72 -12 -72 -71z" />
<glyph unicode="@" horiz-adv-x="1220" d="M70 405.5q0 -221.5 135 -368.5q145 -164 405 -164q127 0 226.5 38t146.5 91l-39 39q-49 -57 -148.5 -86t-181.5 -29q-217 0 -354 130t-137 339t143 344q139 137 344 137.5t348 -126.5t144 -322q0 -106 -41 -174q-51 -90 -127 -90q-41 0 -66 31q-31 43 -24 110l26 334h-51 l-8 -111q-55 123 -211 123q-121 0 -202 -80t-81 -200q0 -121 62.5 -192t179.5 -70q166 0 232 116q6 -39 38.5 -77.5t96.5 -38.5q119 0 180 106q49 86 49 213q0 217 -161 359.5t-385 142.5t-381.5 -151.5t-157.5 -373zM373 371q0 94 66.5 160.5t156.5 66.5t139 -55t49 -150.5 t-59 -162.5t-166 -66q-186 0 -186 207z" />
<glyph unicode="A" horiz-adv-x="1296" d="M63 0h82l170 438h666l168 -438h84l-586 1509zM348 522l299 774l299 -774h-598z" />
<glyph unicode="B" horiz-adv-x="1144" d="M156 0h456q193 0 326 118t133 291t-93 281.5t-247 138.5q158 90 158 270.5t-103.5 271.5t-273.5 91h-356v-1462zM238 84v678h376q158 0 266.5 -92t108.5 -245t-109.5 -247t-265.5 -94h-376zM238 846v532h280q121 0 204 -71.5t83 -192.5t-78 -194.5t-197 -73.5h-292z" />
<glyph unicode="C" horiz-adv-x="1437" d="M102 731q0 -332 210 -542q209 -209 539 -209h3q271 0 416 106l98 72v96q-119 -86 -197 -125q-135 -66 -317 -66q-293 0 -480 187.5t-188 480.5q0 293 188.5 481.5t483 188.5t510.5 -178v104q-196 154 -521 155h-3q-323 0 -532 -209q-210 -210 -210 -542z" />
<glyph unicode="D" horiz-adv-x="1409" d="M156 0h487q297 0 475 215t178 517t-179 516t-474 214h-487v-1462zM238 84v1296h405q260 0 414.5 -189.5t154.5 -474t-172 -458.5t-397 -174h-405z" />
<glyph unicode="E" horiz-adv-x="968" d="M145 0h703v84h-619v672h619v90h-619v532h619v84h-703v-1462z" />
<glyph unicode="F" horiz-adv-x="886" d="M156 0h82v762h553v84h-553v532h553v84h-635v-1462z" />
<glyph unicode="G" d="M102 729q0 -330 210 -540t548 -210q1 0 2 1q340 0 543 214t203 513h-576v-84h484q-20 -197 -164 -353q-188 -207 -487.5 -207t-489.5 189q-191 188 -191 480q0 288 190 478q191 191 480 191q354 0 551 -271l68 52q-225 301 -619 301q-328 0 -540 -212t-212 -542z" />
<glyph unicode="H" horiz-adv-x="1259" d="M156 0h82v762h804v-762h84v1462h-84v-616h-804v616h-82v-1462z" />
<glyph unicode="I" horiz-adv-x="393" d="M158 0h82v1462h-82v-1462z" />
<glyph unicode="J" horiz-adv-x="645" d="M61 117q72 -133 226 -133q235 0 235 307v1171h-84v-1167q0 -227 -153 -227q-100 0 -152 94z" />
<glyph unicode="K" horiz-adv-x="1073" d="M135 0h84v694l12 13l705 -707h117l-762 764l700 698h-119l-653 -649v649h-84v-1462z" />
<glyph unicode="L" horiz-adv-x="729" d="M156 0h493v84h-411v1378h-82v-1462z" />
<glyph unicode="M" horiz-adv-x="1847" d="M47 0h84l313 1231l482 -1268l481 1266l311 -1229h86l-381 1507l-497 -1306l-498 1304z" />
<glyph unicode="N" horiz-adv-x="1464" d="M158 0h82v1241l1093 -1266v1487h-84v-1269l-1091 1280v-1473z" />
<glyph unicode="O" d="M102 731q0 -332 210 -542q209 -209 539 -209h3q332 0 543 209.5t211 541.5t-211 543q-213 209 -544 209t-541 -210t-210 -542zM186 731q0 293 188.5 481.5t481.5 188.5t480.5 -187.5t187.5 -483.5t-187 -482q-188 -184 -482 -184h-2q-293 0 -479 186q-187 188 -188 481z " />
<glyph unicode="P" horiz-adv-x="1003" d="M156 0h82v731h274q168 0 283 103q114 98 114 265t-114.5 265t-282.5 98h-356v-1462zM238 815v563h272q137 0 226 -72.5t89 -205.5t-90 -209t-225 -76h-272z" />
<glyph unicode="Q" d="M119 731q0 -332 210 -542q209 -209 538 -209h3q332 0 543 209.5t211 541.5t-211 543q-213 209 -544 209t-540.5 -210t-209.5 -542zM203 731q0 293 186 481t481 189q295 0 482.5 -187.5t187.5 -483.5t-186 -482q-188 -184 -482 -184q-1 -1 -2 -1q-293 0 -480 187 q-187 188 -187 481zM872 -113v-84h433v84h-433z" />
<glyph unicode="R" horiz-adv-x="991" d="M156 0h82v731h157l465 -731h98l-469 731q289 0 375 203q29 70 29 162t-32 159.5t-85 113.5q-107 93 -282 93h-338v-1462zM238 815v563h254q135 0 223 -68q92 -72 92 -209.5t-81 -211.5t-212 -74h-276z" />
<glyph unicode="S" horiz-adv-x="1019" d="M82 301q96 -317 432 -317q109 0 188 28q236 88 236 367q0 174 -119 291q-82 82 -257 161t-226 119q-90 78 -90 189t83 180.5t203 69.5q196 0 285 -146l80 35q-105 192 -362 192h-3q-156 0 -262 -94q-109 -92 -108 -243q0 -152 106 -244q63 -57 196 -117 q226 -100 281 -151q109 -96 109 -246t-91 -229q-90 -78 -245 -78h-4q-276 0 -348 262z" />
<glyph unicode="T" horiz-adv-x="903" d="M92 1378h324v-1378h84v1378h323v84h-731v-84z" />
<glyph unicode="U" horiz-adv-x="1136" d="M156 365q0 -178 125 -283q119 -96 300 -96t293 94q130 107 130 285v1097h-84v-1097q0 -137 -100 -217q-100 -79 -241 -79q-1 1 -2 1q-142 0 -240.5 76.5t-98.5 218.5v1097h-82v-1097z" />
<glyph unicode="V" horiz-adv-x="1077" d="M76 1462l469 -1487l473 1487h-88l-385 -1208l-383 1208h-86z" />
<glyph unicode="W" horiz-adv-x="1794" d="M70 1462l469 -1482l366 1226l365 -1226l473 1482h-86l-383 -1196l-369 1223l-370 -1223l-383 1196h-82z" />
<glyph unicode="X" horiz-adv-x="1085" d="M68 0h94l385 678l389 -678h96l-430 750l406 712h-97l-362 -633l-361 633h-96l406 -706z" />
<glyph unicode="Y" horiz-adv-x="1046" d="M68 1462l415 -731v-731h84v731l418 731h-96l-365 -633l-360 633h-96z" />
<glyph unicode="Z" horiz-adv-x="1134" d="M80 0h985v84h-836l840 1378h-940v-86h789z" />
<glyph unicode="[" horiz-adv-x="438" d="M121 -94h227v69h-143v1500h137v71h-221v-1640z" />
<glyph unicode="\" horiz-adv-x="575" d="M47 1462l420 -1462h80l-418 1462h-82z" />
<glyph unicode="]" horiz-adv-x="438" d="M125 -25v-69h227v1640h-221v-71h139v-1500h-145z" />
<glyph unicode="^" horiz-adv-x="720" d="M84 772h53l230 422l225 -422h55l-248 576h-67z" />
<glyph unicode="_" horiz-adv-x="731" d="M0 -360v-74h754v74h-754z" />
<glyph unicode="`" horiz-adv-x="679" d="M186 1233l269 -272l51 47l-275 274z" />
<glyph unicode="a" horiz-adv-x="1044" d="M72 422q0 -184 126 -310t320.5 -126t327.5 159v-145h84v846h-84v-148q-135 160 -328.5 160t-319.5 -126t-126 -310zM154 422.5q0 146.5 103 250t249.5 103.5t251 -104.5t104.5 -250.5t-103 -249.5t-249.5 -103.5t-251 104t-104.5 250.5z" />
<glyph unicode="b" horiz-adv-x="1058" d="M113 0h84v156q135 -170 332.5 -170t323.5 126t126 310t-126 310t-324.5 126t-331.5 -170v828h-84v-1516zM188 422.5q0 146.5 103.5 250t250 103.5t251 -104.5t104.5 -250.5t-103 -249.5t-249.5 -103.5t-251.5 104t-105 250.5z" />
<glyph unicode="c" horiz-adv-x="897" d="M96 422q0 -188 125 -313t314 -125h4q141 0 254 75v105q-111 -98 -262.5 -98t-252 100t-100.5 257t99.5 256t257.5 99q70 0 147 -26l57 -31l54 -35v100q-96 74 -271 74t-300.5 -125t-125.5 -313z" />
<glyph unicode="d" horiz-adv-x="1067" d="M88 422q0 -184 126 -310t322.5 -126t331.5 166v-152h84v1516h-84v-824q-141 166 -334.5 166t-319.5 -126t-126 -310zM170 422.5q0 146.5 103 250t249.5 103.5t251.5 -104.5t105 -250.5t-103.5 -249.5t-250 -103.5t-251 104t-104.5 250.5z" />
<glyph unicode="e" horiz-adv-x="1003" d="M70 423q0 -189 124 -314t314 -125q80 0 143 20q166 53 246 205l-76 35q-71 -113 -149 -146q-76 -32 -159 -32h-5q-168 0 -262 101t-94 273h792q0 186 -124 303t-313 117t-313 -124t-124 -313zM164 520q82 258 344 258q125 0 223.5 -70.5t118.5 -187.5h-686z" />
<glyph unicode="f" horiz-adv-x="555" d="M88 762h115v-762h84v762h200v84h-200v457q0 135 114 135l56 -6l55 -13v84q-42 19 -113 19q-197 0 -196 -195v-481h-115v-84z" />
<glyph unicode="g" horiz-adv-x="1044" d="M72 422q0 -184 126 -310t320.5 -126t327.5 159v-125q0 -158 -87 -245.5t-245 -87.5q-117 0 -201 39q-106 49 -129 149h-84q68 -272 414 -272q186 0 301 114.5t115 300.5v828h-84v-148q-135 160 -328.5 160t-319.5 -126t-126 -310zM154 422.5q0 146.5 103 250t249.5 103.5 t251 -104.5t104.5 -250.5t-103 -249.5t-249.5 -103.5t-251 104t-104.5 250.5z" />
<glyph unicode="h" horiz-adv-x="933" d="M152 0h84v551q0 102 74.5 163.5t176.5 61.5q250 0 250 -268v-510h84v518q0 342 -334 342q-176 0 -251 -125v783h-84v-1516z" />
<glyph unicode="i" horiz-adv-x="376" d="M125 1065q2 -31 20 -49q25 -18 48 -19q67 0 67 68q-16 68 -67 68q-68 -12 -68 -68zM150 0h83v846h-83v-846z" />
<glyph unicode="j" horiz-adv-x="378" d="M125 1065q2 -31 20 -49q25 -18 48 -19q67 0 67 68q-16 68 -67 68q-68 -12 -68 -68zM152 -369h84v1215h-84v-1215z" />
<glyph unicode="k" horiz-adv-x="854" d="M137 0h84v393l47 47l443 -440h110l-497 498l383 381h-119l-367 -365v1002h-84v-1516z" />
<glyph unicode="l" horiz-adv-x="393" d="M158 0h82v1516h-82v-1516z" />
<glyph unicode="m" horiz-adv-x="1316" d="M135 0h84v584q0 88 57 140t140.5 52t141.5 -53t58 -139v-584h84v584q0 192 197 192h2q96 0 147.5 -57t51.5 -135v-584h84v584q0 129 -78 201.5t-205 72.5q-166 0 -240 -133q-78 133 -228 133t-212 -96v84h-84v-846z" />
<glyph unicode="n" horiz-adv-x="923" d="M135 0h84v514q1 121 63 191q62 69 178 69h3q242 0 242 -268v-506h83v514q0 162 -83.5 252t-255.5 90t-230 -113v103h-84v-846z" />
<glyph unicode="o" horiz-adv-x="1019" d="M72 421q0 -183 126 -309t310 -126t310 126t126 310t-127 311t-310 127t-309 -128t-126 -311zM154 420.5q0 144.5 105 251t252 106.5t249 -103t102 -251.5t-103 -252t-249.5 -103.5t-251 104t-104.5 248.5z" />
<glyph unicode="p" horiz-adv-x="1050" d="M131 -397h84v555q137 -172 334.5 -172t323.5 126t126 310t-126 310t-310 126q-217 0 -348 -172v160h-84v-1243zM209 422.5q0 146.5 103 250t249.5 103.5t251.5 -104.5t105 -250.5t-103.5 -249.5t-250 -103.5t-251 104t-104.5 250.5z" />
<glyph unicode="q" horiz-adv-x="1028" d="M61 422q0 -184 126 -310t323 -126t332 166v-549h84v1243h-84v-154q-139 166 -333.5 166t-321 -126t-126.5 -310zM143 422.5q0 146.5 103.5 250t250 103.5t251 -104.5t104.5 -250.5t-103 -249.5t-249.5 -103.5t-251.5 104t-105 250.5z" />
<glyph unicode="r" horiz-adv-x="634" d="M135 0h84v557q0 73 49 143q54 74 124 74t143 -53l45 70q-51 37 -92.5 51t-98.5 14t-100 -39t-70 -86v115h-84v-846z" />
<glyph unicode="s" horiz-adv-x="677" d="M59 162q98 -178 295 -178q115 0 196 68t81 181t-88 181q-55 38 -159 74.5t-144.5 69t-40.5 89.5q0 129 147 129q109 0 178 -69l62 53q-98 98 -240 98q-102 0 -167 -62t-65 -154q0 -95 66 -148q45 -37 124 -66q143 -51 175 -72q68 -53 68 -125q0 -163 -191 -163h-2 q-88 0 -138 36.5t-85 100.5z" />
<glyph unicode="t" horiz-adv-x="512" d="M63 762h115v-762h84v762h197v84h-197v371h-84v-371h-115v-84z" />
<glyph unicode="u" horiz-adv-x="878" d="M125 317q0 -158 82 -245.5t232.5 -87.5t233.5 88.5t83 244.5v529h-82v-529q0 -251 -234 -251h-2q-121 0 -176 65q-53 66 -53 186v529h-84v-529z" />
<glyph unicode="v" horiz-adv-x="890" d="M55 846l400 -883l401 883h-94l-309 -674l-308 674h-90z" />
<glyph unicode="w" horiz-adv-x="1400" d="M59 846l379 -883l269 676l264 -676l383 883h-94l-283 -653l-270 679l-273 -682l-284 656h-91z" />
<glyph unicode="x" horiz-adv-x="739" d="M33 0h100l240 354l239 -354h99l-287 428l281 418h-99l-233 -350l-236 350h-98l283 -420z" />
<glyph unicode="y" horiz-adv-x="911" d="M57 846l357 -768l-219 -475h94l577 1243h-92l-311 -668l-316 668h-90z" />
<glyph unicode="z" horiz-adv-x="935" d="M94 0h764v84h-590l600 762h-739v-80h569z" />
<glyph unicode="{" horiz-adv-x="395" d="M16 727q93 -93 93 -184v-412q0 -137 58.5 -186t197.5 -49v75q-102 0 -141.5 32t-39.5 132v408q0 47 -25.5 99t-58.5 85q84 72 84 184v375q0 94 40 134t138 40v76q-139 0 -196 -56t-57 -194v-375q0 -111 -93 -184z" />
<glyph unicode="|" horiz-adv-x="272" d="M111 -94h71v1640h-71v-1640z" />
<glyph unicode="}" horiz-adv-x="395" d="M31 -29v-75q139 0 198 49q57 49 58 186v412q0 53 28.5 104t63.5 80q-47 47 -70 87t-22 97v375q0 131 -59.5 190.5t-194.5 59.5v-76q98 0 138 -40t40 -134v-375q0 -113 84 -184q-84 -90 -84 -184v-408q0 -100 -39 -133q-41 -31 -141 -31z" />
<glyph unicode="~" horiz-adv-x="878" d="M61 709l58 -60l39 35l35 23q101 50 194 2l51 -27l84 -39q25 -10 82 -10q123 0 219 102l-65 56q-72 -74 -158 -74l-37 4l-35 10l-151 70q-37 12 -76 12q-135 0 -240 -104z" />
<glyph unicode="&#xa1;" horiz-adv-x="417" d="M137 1245q0 -74 74 -74q74 13 74 74q-6 35 -26 54.5t-48 19.5q-74 -12 -74 -74zM172 -152h82v1160h-82v-1160z" />
<glyph unicode="&#xa2;" horiz-adv-x="866" d="M78 726q0 -163 92 -275q113 -141 274 -142v-121h86v119l66 6l61 15q61 25 99 49v94q-121 -84 -226 -84v668q55 0 123 -29l54 -31l53 -34v100q-45 41 -107 59q-55 23 -123 23v100h-86v-102q-168 -20 -267 -136t-99 -279zM168 718q0 130 76 224q78 92 200 111v-664 q-127 20 -201.5 109.5t-74.5 219.5z" />
<glyph unicode="&#xa3;" horiz-adv-x="970" d="M80 55l53 -57q96 92 201 88l47 -4l47 -12q27 -6 57 -25q96 -57 184.5 -57t153.5 37q58 40 95 77l-56 54q-86 -86 -182 -86q-43 0 -80 12l-78 35q-29 18 -73 37l-35 14l-31 2q147 147 147 330h230v88h-234q-20 76 -69 149l-107 160q-80 119 -96 197l-6 65q0 231 268 232 q117 0 184 -48q84 -55 84 -163h82q0 145 -99 219t-252 74t-255 -81t-102 -233q0 -72 35 -158l81 -145l76 -104q76 -102 88 -164h-213v-88h219q0 -166 -168 -334q-49 0 -107 -34t-89 -77z" />
<glyph unicode="&#xa5;" horiz-adv-x="1052" d="M68 1462l409 -721h-201v-84h207v-92h-207v-84h207v-481h84v481h209v84h-209v92h209v84h-203l412 721h-96l-365 -635l-360 635h-96z" />
<glyph unicode="&#xa6;" horiz-adv-x="272" d="M111 0h71v670h-71v-670zM111 893h71v653h-71v-653z" />
<glyph unicode="&#xa7;" horiz-adv-x="778" d="M75.5 709.5q0.5 -121.5 83.5 -207.5t203 -103q217 -27 218 -235q0 -86 -56.5 -135t-144.5 -49t-134 46t-73 111l-76 -35q78 -202 285 -202q125 0 208 70.5t83 193.5q0 188 -140 266q177 103 177 283q0 276 -316 327q-188 31 -188 199q0 74 51 124t125 50q127 0 201 -135 l61 41q-86 172 -262 172q-111 0 -186.5 -72t-75.5 -184q0 -152 145 -236q-88 -47 -123 -90q-66 -78 -65.5 -199.5zM170 716q0 95 57 155t150 61q239 0 239 -225q0 -96 -63 -150.5t-157.5 -54.5t-160 59.5t-65.5 154.5z" />
<glyph unicode="&#xa8;" horiz-adv-x="878" d="M242 1065q2 -31 20 -49q25 -18 47 -19q68 0 68 68q-16 68 -68 68q-68 -12 -67 -68zM522 1065q2 -31 21 -49q25 -18 47 -19q67 0 67 68q-16 68 -67 68q-68 -12 -68 -68z" />
<glyph unicode="&#xa9;" horiz-adv-x="1204" d="M70 797q0 -225 156.5 -382t381.5 -157t383 158q156 160 156 383t-158 381q-160 156 -383 155.5t-380 -157t-156 -381.5zM113 799q0 209 144 353t353 144t353.5 -144t144.5 -353t-144 -353.5t-354 -144.5q-209 0 -353 144t-144 354zM342 810q0 -112 77 -181.5t194.5 -69.5 t189.5 72v49q-72 -80 -189 -80t-174 60.5t-57 150.5t64.5 145t160.5 56l60 -6q27 -2 57 -19l41 -20l37 -25v49l-41 25l-35 16q-41 20 -137.5 20.5t-171.5 -67.5q-76 -63 -76 -175z" />
<glyph unicode="&#xaa;" horiz-adv-x="763" d="M102 688h582v60h-582v-60zM119 1121q0 -110 75 -185.5t194.5 -75.5t193.5 96v-88h51v508h-51v-88q-78 96 -196 96t-193 -75q-74 -78 -74 -188zM168 1122q0 86 62 149.5t149 63.5q86 0 149.5 -63.5t63.5 -149.5t-63.5 -149.5t-149.5 -63.5t-148.5 63.5t-62.5 149.5z" />
<glyph unicode="&#xab;" horiz-adv-x="899" d="M78 522l377 -379l43 43l-336 336l344 344l-41 43zM375 522l377 -379l43 43l-338 336l346 344l-43 43z" />
<glyph unicode="&#xac;" horiz-adv-x="802" d="M131 725h520v53h-520v-53zM205 168q0 -82 52 -134t139 -52t141 51q53 53 53 135q0 127 -127 174q45 8 74 54t28.5 109t-47.5 110t-122 47t-122 -47.5t-47 -107.5t28 -105.5t73 -59.5q-123 -47 -123 -174zM242 164.5q0 64.5 46 110.5t110.5 46.5t109.5 -45t45 -108.5 t-45 -107q-47 -43 -112 -43t-109 43q-45 39 -45 103.5zM264 494q0 55 39 93t94 38t93 -38t38 -93t-38 -93.5t-93 -38.5t-94 38t-39 94zM272 1479h111v-621h37v660h-123z" />
<glyph unicode="&#xad;" horiz-adv-x="555" d="M37 500h432v84h-432v-84z" />
<glyph unicode="&#xae;" horiz-adv-x="817" d="M84 1104q0 -135 94 -229.5t230 -94.5q135 0 229 94.5t94 229.5t-94 229t-229 94t-229.5 -94t-94.5 -229zM115 1104q0 117 88 205t205 88t204.5 -88t87.5 -205t-88 -205t-204 -88q-117 0 -205 88t-88 205zM295 926h29v172h63l119 -172h37l-121 172h16q104 0 105 100 q0 45 -29 73t-76 27h-143v-372zM324 1126v144h116q74 0 74 -72t-74 -72h-116z" />
<glyph unicode="&#xaf;" horiz-adv-x="804" d="M117 971h583v73h-583v-73z" />
<glyph unicode="&#xb0;" horiz-adv-x="434" d="M47 1260q0 -68 51.5 -119t118.5 -51q68 0 119 51t51 119t-51 119t-119 51t-119 -51.5t-51 -118.5zM90 1262q0 49 39 88t88 39t88 -39t39 -88t-39 -88t-88 -39t-88 38.5t-39 88.5z" />
<glyph unicode="&#xb1;" horiz-adv-x="794" d="M137 291h527v84h-527v-84zM137 662h209v-209h94v209h209v83h-209v209h-94v-209h-209v-83z" />
<glyph unicode="&#xb2;" horiz-adv-x="802" d="M209 856h397v37h-315l190 215q72 82 88 106q39 66 39 136.5t-57 119.5q-59 49 -132 49.5t-129 -42.5t-67 -113h41q39 119 152 119q59 0 106 -41t47 -97.5t-39 -115.5z" />
<glyph unicode="&#xb3;" horiz-adv-x="802" d="M227 999q39 -143 181 -143q84 0 136 50t52 132q0 139 -129 176q123 33 123 152q0 78 -51.5 123t-124 45t-121.5 -41t-55 -115h43q18 117 133 117q57 0 94 -36t37 -93l-8 -51l-25 -39q-35 -35 -94 -35h-39v-53h39l43 -8q18 -6 41 -25q53 -41 53 -109.5t-43 -111.5 q-45 -41 -100 -41t-95 35q-37 35 -49 71h-41z" />
<glyph unicode="&#xb4;" horiz-adv-x="835" d="M319 1010l50 -49l272 272l-49 49z" />
<glyph unicode="&#xb5;" horiz-adv-x="1607" d="M125 0h885v84h-701l420 475q57 66 94 110t56 66q133 172 133 348t-125 284t-313.5 108t-311.5 -136q-92 -104 -106 -211h92q23 94 80 158q94 106 244.5 106.5t252.5 -88.5t102.5 -220.5t-85.5 -254.5zM354 911q0 -68 51.5 -119t118.5 -51q68 0 119 51t51 119t-51 119 t-119 51t-119 -51t-51 -119zM397 913q0 49 39 88t88 39t88 -39t39 -88t-39 -88t-88 -39t-88 39t-39 88zM500 879q0 -18 13 -31.5t32 -13.5q18 0 31.5 13t13.5 32q0 18 -13.5 31.5t-31.5 13.5t-31.5 -13.5t-13.5 -31.5zM760 -264q84 -90 223 -90t217 90l-37 45 q-76 -76 -178 -76t-182 80zM1092 911q0 -68 51 -119t119 -51t119 51t51 119t-51.5 119t-118.5 51q-68 0 -119 -51t-51 -119zM1135 913q0 49 38.5 88t88.5 39q49 0 88 -39t39 -88t-39 -88t-88 -39t-88 39t-39 88zM1239 872q0 -18 13.5 -31.5t31.5 -13.5t31.5 13.5t13.5 31.5 t-13 32t-32 14q-18 0 -31.5 -14t-13.5 -32z" />
<glyph unicode="&#xb6;" horiz-adv-x="1034" d="M100 1094q0 -166 113 -264.5t285 -98.5h137v-856h84v1587h-221q-170 0 -284 -101t-114 -267zM829 -125h84v1587h-84v-1587z" />
<glyph unicode="&#xb7;" horiz-adv-x="565" d="M141 664q2 -31 21 -50q25 -18 47 -18q67 0 67 68q-16 68 -67 67q-68 -12 -68 -67z" />
<glyph unicode="&#xb8;" horiz-adv-x="532" d="M147 -176v-82q57 -51 122 -51t97.5 32.5t32.5 83.5q0 84 -77 109l28 84h-92l-33 -100q74 -29 74 -72q0 -49 -57 -49l-49 14q-31 18 -46 31z" />
<glyph unicode="&#xb9;" horiz-adv-x="802" d="M301 1479h111v-621h37v660h-123z" />
<glyph unicode="&#xba;" horiz-adv-x="763" d="M94 688h578v60h-578v-60zM121 1130q0 -111 75.5 -186.5t186.5 -75.5t186.5 75.5t75.5 186.5t-75.5 187t-186.5 76t-186.5 -76t-75.5 -187zM170 1130q0 86 63.5 149.5t149.5 63.5t149.5 -63.5t63.5 -149.5t-63.5 -149t-149.5 -63t-149.5 63t-63.5 149z" />
<glyph unicode="&#xbb;" horiz-adv-x="899" d="M111 866l344 -344l-336 -336l43 -43l377 379l-387 387zM418 866l344 -344l-336 -336l43 -43l377 379l-387 387z" />
<glyph unicode="&#xbc;" horiz-adv-x="802" d="M156 123h338v-125h38v125h58v37h-58v506zM162 725h520v53h-520v-53zM223 160l271 383v-383h-271zM301 1479h111v-621h37v660h-123z" />
<glyph unicode="&#xbd;" horiz-adv-x="802" d="M166 725h520v53h-520v-53zM217 0h397v37h-315l190 215q72 82 89 106q38 66 38 136.5t-57 119.5q-59 49 -132 49.5t-130 -45.5q-55 -41 -66 -110h41q39 119 152 119q59 0 106.5 -41t47.5 -97.5t-39 -115.5zM313 1479h111v-621h37v660h-123z" />
<glyph unicode="&#xbe;" horiz-adv-x="802" d="M147 725h523v53h-523v-53zM164 123h338v-125h39v125h57v37h-57v506zM227 999q39 -143 181 -143q84 0 136 50t52 132q0 139 -129 176q123 33 123 152q0 78 -51.5 123t-124 45t-121.5 -41t-55 -115h43q18 117 133 117q57 0 94 -36t37 -93l-8 -51l-25 -39q-35 -35 -94 -35 h-39v-53h39l43 -8q18 -6 41 -25q53 -41 53 -109.5t-43 -111.5q-45 -41 -100 -41t-95 35q-37 35 -49 71h-41zM231 160l271 383v-383h-271z" />
<glyph unicode="&#xbf;" horiz-adv-x="960" d="M76 147q0 -160 114 -239q98 -72 267 -72q296 1 409 273l-78 34q-59 -100 -114 -147q-94 -78 -215 -78t-210 57t-89 159q0 137 126 236q40 31 99 76l174 129q143 106 143 240q0 88 -61 140t-163.5 52.5t-164.5 -61.5l49 -67q41 41 111 42t104.5 -28t34.5 -78 q0 -106 -102 -180l-172 -125q-154 -110 -170 -133q-92 -104 -92 -230zM430 1253q12 -72 72 -71q71 12 71 71q-12 72 -71 72q-72 -12 -72 -72z" />
<glyph unicode="&#xc0;" horiz-adv-x="1296" d="M63 0h82l170 438h666l168 -438h84l-586 1509zM348 522l299 774l299 -774h-598zM414 1784l241 -244l47 41l-247 248z" />
<glyph unicode="&#xc1;" horiz-adv-x="1296" d="M63 0h82l170 438h666l168 -438h84l-586 1509zM348 522l299 774l299 -774h-598zM604 1583l39 -39l229 228l-41 40z" />
<glyph unicode="&#xc2;" horiz-adv-x="1296" d="M63 0h82l170 438h666l168 -438h84l-586 1509zM348 522l299 774l299 -774h-598zM403 1550l43 -43l205 203l205 -203l43 43l-248 248z" />
<glyph unicode="&#xc3;" horiz-adv-x="1286" d="M63 0h82l170 438h666l168 -438h84l-586 1509zM317 1593l58 -45q51 68 127 68q45 0 73 -12l60 -25q61 -37 141 -37t127 29l33 26l39 41l-60 45q-43 -43 -59 -49l-25 -8h-47l-71 8l-60 25q-16 9 -53 23.5t-88 15.5q-137 0 -195 -105zM348 522l299 774l299 -774h-598z" />
<glyph unicode="&#xc4;" horiz-adv-x="1286" d="M63 0h82l170 438h666l168 -438h84l-586 1509zM348 522l299 774l299 -774h-598zM432 1630q2 -31 21 -49q25 -18 47 -18q67 -1 67 67q-16 68 -67 68q-68 -12 -68 -68zM713 1630q2 -31 20 -49q25 -18 47 -18q68 -1 68 67q-16 68 -68 68q-68 -12 -67 -68z" />
<glyph unicode="&#xc5;" horiz-adv-x="1296" d="M63 0h82l170 438h666l168 -438h84l-586 1509zM348 522l299 774l299 -774h-598zM508 1665q0 -57 41 -98t98 -41t98 41t41 98t-40.5 98t-98.5 41q-57 0 -98 -41t-41 -98zM544.5 1666q0.5 44 30 74t71.5 29.5t73 -31t31 -70.5t-32 -73t-75 -32.5t-71 30t-27.5 73.5z" />
<glyph unicode="&#xc6;" horiz-adv-x="1515" d="M59 0h82l299 670h260v-670h705v84h-621v678h621v84h-619v532h619v84h-694zM479 752l221 497v-497h-221z" />
<glyph unicode="&#xc7;" horiz-adv-x="1437" d="M102 736q0 -327 197 -531q219 -225 498 -225l-33 -76q27 -6 47 -31t20 -47q0 -49 -53 -49t-86 39l-33 -68q57 -57 140 -57q125 0 125 123q0 63 -64 108l23 58q182 0 317 63l68 43l100 72v96q-119 -86 -197 -125q-135 -66 -317 -66q-293 0 -480 187.5t-188 480.5 q0 293 188.5 481.5t483 188.5t510.5 -178v104q-196 154 -521 155t-535 -209t-210 -537z" />
<glyph unicode="&#xc8;" horiz-adv-x="968" d="M145 0h703v84h-619v672h619v90h-619v532h619v84h-703v-1462zM254 1784l244 -244l45 41l-246 248z" />
<glyph unicode="&#xc9;" horiz-adv-x="968" d="M145 0h703v84h-619v672h619v90h-619v532h619v84h-703v-1462zM453 1579l43 -35l229 228l-43 45z" />
<glyph unicode="&#xca;" horiz-adv-x="968" d="M145 0h703v84h-619v672h619v90h-619v532h619v84h-703v-1462zM258 1591l43 -43l205 203l205 -203l41 43l-246 248z" />
<glyph unicode="&#xcb;" horiz-adv-x="968" d="M145 0h703v84h-619v672h619v90h-619v532h619v84h-703v-1462zM293 1630q2 -31 20 -49q25 -18 47 -18q68 -1 68 67q-16 68 -68 68q-68 -12 -67 -68zM573 1630q2 -31 21 -49q25 -18 47 -18q68 -1 68 67q-16 68 -68 68q-68 -12 -68 -68z" />
<glyph unicode="&#xcc;" horiz-adv-x="393" d="M-25 1784l244 -244l45 41l-246 248zM158 0h82v1462h-82v-1462z" />
<glyph unicode="&#xcd;" horiz-adv-x="393" d="M143 1583l41 -39l228 228l-39 40zM158 0h82v1462h-82v-1462z" />
<glyph unicode="&#xce;" horiz-adv-x="393" d="M-53 1550l45 -43l205 203l204 -203l41 43l-245 248zM158 0h82v1462h-82v-1462z" />
<glyph unicode="&#xcf;" horiz-adv-x="393" d="M-12 1630q2 -31 20 -49q25 -18 47 -18q68 -1 68 67q-16 68 -68 68q-68 -12 -67 -68zM158 0h82v1462h-82v-1462zM268 1630q2 -31 21 -49q25 -18 47 -18q67 -1 67 67q-16 68 -67 68q-68 -12 -68 -68z" />
<glyph unicode="&#xd0;" horiz-adv-x="1409" d="M66 694h90v-694h487q297 0 475 215t178 517t-179 516t-474 214h-487v-684h-90v-84zM238 84v610h260v84h-260v602h405q260 0 414.5 -189.5t154.5 -474t-172 -458.5t-397 -174h-405z" />
<glyph unicode="&#xd1;" horiz-adv-x="1464" d="M158 0h82v1241l1093 -1266v1487h-84v-1269l-1091 1280v-1473zM410 1593l57 -45q51 68 127 68q45 0 74 -12l59 -25q61 -37 141 -37t127 29l33 26l39 41l-59 45q-43 -43 -60 -49l-24 -8h-47l-72 8l-60 25q-10 6 -34 18q-55 20 -107 21q-137 0 -194 -105z" />
<glyph unicode="&#xd2;" d="M102 731q0 -332 210 -542t542 -209q332 0 543 209.5t211 541.5t-211 543q-213 209 -544 209t-541 -210t-210 -542zM186 731q0 293 188.5 481.5t481.5 188.5t480.5 -187.5t187.5 -483.5t-187 -482q-188 -184 -482 -184.5t-481 187t-188 480.5zM596 1784l242 -244l47 41 l-248 248z" />
<glyph unicode="&#xd3;" d="M102 731q0 -332 210 -542t542 -209q332 0 543 209.5t211 541.5t-211 543q-213 209 -544 209t-541 -210t-210 -542zM186 731q0 293 188.5 481.5t481.5 188.5t480.5 -187.5t187.5 -483.5t-187 -482q-188 -184 -482 -184.5t-481 187t-188 480.5zM780 1583l39 -39l228 228 l-39 40z" />
<glyph unicode="&#xd4;" d="M102 731q0 -332 210 -542t542 -209q332 0 543 209.5t211 541.5t-211 543q-213 209 -544 209t-541 -210t-210 -542zM186 731q0 293 188.5 481.5t481.5 188.5t480.5 -187.5t187.5 -483.5t-187 -482q-188 -184 -482 -184.5t-481 187t-188 480.5zM600 1602l43 -43l205 202 l205 -202l43 43l-248 247z" />
<glyph unicode="&#xd5;" d="M102 731q0 -332 210 -542t542 -209q332 0 543 209.5t211 541.5t-211 543q-213 209 -544 209t-541 -210t-210 -542zM186 731q0 293 188.5 481.5t481.5 188.5t480.5 -187.5t187.5 -483.5t-187 -482q-188 -184 -482 -184.5t-481 187t-188 480.5zM502 1618l57 -45 q51 68 127 67q45 0 74 -12l59 -24q61 -37 141 -37t127 28l33 27l39 41l-59 45q-43 -43 -60 -49l-24 -8h-47l-72 8l-59 24q-15 9 -35 19q-55 20 -107 20q-137 0 -194 -104z" />
<glyph unicode="&#xd6;" d="M102 731q0 -332 210 -542t542 -209q332 0 543 209.5t211 541.5t-211 543q-213 209 -544 209t-541 -210t-210 -542zM186 731q0 293 188.5 481.5t481.5 188.5t480.5 -187.5t187.5 -483.5t-187 -482q-188 -184 -482 -184.5t-481 187t-188 480.5zM639 1630q2 -31 20 -49 q25 -18 48 -18q67 -1 67 67q-16 68 -67 68q-68 -12 -68 -68zM920 1630q2 -31 20 -49q25 -18 47 -18q68 -1 68 67q-16 68 -68 68q-68 -12 -67 -68z" />
<glyph unicode="&#xd7;" horiz-adv-x="1929" d="M14 475l19 -12v-176h84v166q229 -37 397 2q-10 -35 -5 -94.5t5 -73.5h70q-35 -10 -113 -15l-2 -12l63 -20l-36 -7v-12q75 -33 151 -51q-29 -10 -58.5 -17.5t-56.5 -21.5l35 -27l-26 -4l-2 -12l8 -2q-82 -8 -166 -8l-2 -12l67 -11l-14 -16q82 -4 162 -29l4 13l-31 6 q49 6 104.5 5t100.5 25q-36 9 -37 9l-106 -5l-17 13q105 14 181 14v12l-222 -10l43 4l2 13l-67 16q29 16 60.5 22.5t62.5 16.5v12q-80 18 -154 49l43 6l2 13l-59 18q47 4 95 16.5t81 51.5v8l-82 47v78q188 96 287 153l-2 13l-209 -15l-21 72q48 7 101 39l-2 10 q-41 6 -78 15.5t-76 19.5v53l14 11l140 -17l6 4l30 -6l5 12l-15 4l43 5v12l-88 10l31 2l2 12q-43 12 -84 15.5t-82 19.5l14 60l13 10l123 -4l-82 14l-23 25q48 51 142 51t151 -53.5t57 -139.5v-870h84v694l13 13l704 -707h117l-750 752l35 6l6 -35l29 31l-6 -27l10 -6l27 24 l-4 -40l12 -5l24 37l-2 -82l11 -4l28 43l10 -37h13l12 39v-34h12q0 26 44 103t51 93l-2 -94l-27 -12l43 -15l-12 -123l12 -4l29 52l6 -17l37 74q149 -38 282 -57l-35 -31l52 -19l-88 -18l-3 -12l56 -25l4 12l-37 15l90 22v12l-57 19l35 22l59 -6v13q-86 6 -121 36 q16 32 70 66l-2 10q-77 39 -226 39l21 43l-10 6l-31 -49h-2l14 223l-12 2l-45 -225h-66l4 43l-12 2l-12 -45h-2v14q-2 43 12 84t29 82l-10 7l-35 -50l-15 17l-65 -131l-17 2l-14 -70l-6 35q-10 -21 -39 -55l-16 51l-13 -2l-2 -41l-22 -33l2 35l-10 4l-23 -23l19 45l-11 7 l-43 -52q9 15 -6 56l-2 -29l-47 -8l-2 2l700 698h-118l-654 -649v649h-84v-383q-77 66 -198 66q-69 0 -153 -51q-23 -13 -52 -25l-60 21v4l-14 2l-37 30l-24 -14l-39 16l94 15v12l-82 16q47 -7 107 11v12l-148 45h96q194 0 279 80l-4 10q-109 0 -218.5 -3t-213.5 30l94 39 l-4 12q-39 -8 -78 -9t-80 -3q28 24 262 24q51 0 76 4v13q-146 22 -209 43q128 60 203 63l4 12l156 33l-2 12l-101 5q-43 2 -86 -4.5t-86 -2.5l35 29l-61 19l71 118l-12 9q-6 -10 -19.5 -32t-27.5 -46q-34 -61 -31 -78l41 8l21 -6l-52 -25q20 -10 68.5 -10t97.5 5t101 1 q-104 -28 -152 -28l-45 8l-4 8q-45 2 -88 9t-88 13v-12l76 -12l-50 4v-12l136 -15q-53 -4 -109 -4q-55 0 -109 -6l181 -12h18l-104 -45v-12q69 -27 170 -41q-74 -2 -152 -3.5t-143 -39.5l6 -7h59q31 0 60 4l-62 -24v-12q102 -40 252 -35l182 2q-86 -66 -251 -66h-89 q-4 0 -15 1t-23.5 0t-20.5 -4t-2 -9q55 -12 174 -51l-43 -6q-35 0 -68.5 6t-68.5 10l-2 -12q70 -23 141 -37q-60 -12 -93.5 -12t-72.5 1t-73 -6q-79 -15 -119 -83v84h-84v-654zM117 465v22q195 50 397 70v-90q-88 -18 -199 -18h-53q-52 0 -145 16zM117 502v141 q100 -4 198.5 -20.5t198.5 -30.5v-23q-200 -22 -397 -67zM117 655v215q0 86 56 139.5t142 53.5q66 0 109 -29q-6 -6 6 -13t19.5 -10t11.5 -5q-40 0 -68 -6.5t-28 -10.5l6 -8h53q26 0 53 4q21 -25 29 -57l-23 -21l-37 2q-30 0 -30 -10l16 -4v-12q32 0 82 -15v-75 q-169 41 -262 41q-33 0 -33 -15q0 -68 225 -86q50 -4 70 -6v-39l-65 2q-54 0 -54 -10q14 -14 119 -35v-29q-100 6 -198.5 20.5t-198.5 18.5zM231 817q4 4 15 4q99 0 268 -41v-41q-31 2 -72 4t-80 9q-101 20 -131 65zM297 1546h8h-8zM440 893l27 -2zM446 68q41 0 84 6 l-38 -11q-18 0 -46 5zM461 676h53v-17q-14 4 -26.5 8.5t-26.5 8.5zM469 47q12 4 23 4h40q2 -4 14 -4h15q-16 -4 -33 -4h-8q-27 0 -51 4zM469 1106l8 8l19 -14q-21 0 -27 6zM500 1083l4 2q20 -7 26 -16h-4q-4 2 -14 2zM502 905l8 8l2 -8h-10zM524 885l2 -2zM524 1059h21l4 -2 q-4 -4 -8 -5t-9 -3q-2 4 -4 5t-4 5zM543 1036q13 13 28 13q-6 -12 -6 -15v-4h-20zM545 63l49 9q4 -2 7 -3t7 -6h-63zM555 588h2h-2zM561 1018h2h-2zM571 1061h2h-2zM598 291v82q26 -8 70 -39q-27 -31 -70 -43zM598 477v8q60 31 72 86q59 0 59 11q0 8 -21 8h-34v12 q92 4 180 12q-63 -37 -126.5 -69.5t-129.5 -67.5zM598 500v20q0 11 6 23l-6 2v22q27 0 59 4q-11 -42 -59 -71zM598 596v4h64v-10zM598 629v51q10 2 20 2t21 2q18 -24 23 -72h-52q8 0 8 5t-8 7.5t-12 4.5zM598 692v21q15 -7 31 -19zM598 725v33q80 -23 139 -33 q-16 -14 -44 -19.5t-48 -9.5q-20 20 -47 29zM598 893v2q4 -2 14 -2h-14zM631 995q2 4 6 9l10 -11q-4 0 -8 1t-8 1zM637 49v2q71 0 115 6q-29 -6 -58 -6q-28 0 -57 -2zM668 852h4h-4zM700 864q4 0 13 4h8q-4 -4 -4 -8zM737 844l2 -2h4zM737 846l21 -4h-19zM1307 676v35 q4 0 8 6t8 10l6 -16q-6 -10 -11 -18.5t-11 -16.5zM1313 735l2 15l2 -9zM1331 737q12 16 19 23q0 -12 -15 -35zM1341 709l7 12v-29zM1389 719q4 29 6 56t6 56l6 -2q3 0 23 29t30 43t13 19q2 -10 2 -23.5t-11.5 -37t-27 -52.5t-29.5 -54.5t-18 -33.5zM1450 909l20 39l3 -10z M1485 915v21l18 27q-6 -18 -18 -48zM1487 752h4h-4zM1487 764q4 20 8 31l-4 -31h-4zM1493 643l8 92l43 -12q-6 -14 -23.5 -39t-27.5 -41zM1503 748v4h25q8 0 24 -4l-4 -15zM1503 764l4 39q56 -8 62 -12q-2 -10 -10 -31q-14 4 -27 4h-29zM1567 729l4 14q18 -4 35.5 -9 t35.5 -9l-2 -4q0 -4 14.5 -8t32 -9.5t35 -8.5t23.5 -5q-98 17 -178 39zM1575 756q6 24 6 30q6 -2 16 -2t15 -4l4 2q27 -6 57 -6l6 6q0 8 -24.5 10.5t-30.5 4.5l2 8h31q126 0 198 -35q-14 -20 -47 -31l-4 -6q2 -16 -3 -18t-34.5 -2t-89 16t-102.5 27zM1587 817q10 37 16.5 74 t14.5 76q-8 -80 -12 -150h-19zM1737 705q23 -4 29.5 -4.5t29.5 -10.5q-16 4 -30.5 7.5t-28.5 7.5z" />
<glyph unicode="&#xd8;" d="M102 731q0 -178 73 -340t214 -264l-82 -119l74 -49l82 119q180 -98 391 -98q332 0 543 209.5t211 541.5q0 379 -273 594l86 123l-75 47l-84 -119q-180 106 -408 107q-332 0 -542 -210t-210 -542zM186 731q0 293 188.5 481.5t479.5 188.5q192 0 360 -94l-776 -1110 q-252 184 -252 534zM512 147l774 1108q238 -190 238 -524q0 -297 -187 -483q-188 -184 -483 -185q-184 0 -342 84z" />
<glyph unicode="&#xd9;" horiz-adv-x="1136" d="M156 365q0 -178 125 -283q119 -96 300 -96t293 94q130 107 130 285v1097h-84v-1097q0 -137 -100.5 -216.5t-242.5 -79t-240.5 77t-98.5 218.5v1097h-82v-1097zM354 1784l244 -244l45 41l-246 248z" />
<glyph unicode="&#xda;" horiz-adv-x="1136" d="M156 365q0 -178 125 -283q119 -96 300 -96t293 94q130 107 130 285v1097h-84v-1097q0 -137 -100.5 -216.5t-242.5 -79t-240.5 77t-98.5 218.5v1097h-82v-1097zM547 1583l41 -39l227 228l-39 40z" />
<glyph unicode="&#xdb;" horiz-adv-x="1136" d="M156 365q0 -178 125 -283q119 -96 300 -96t293 94q130 107 130 285v1097h-84v-1097q0 -137 -100.5 -216.5t-242.5 -79t-240.5 77t-98.5 218.5v1097h-82v-1097zM332 1602l45 -43l205 202l204 -202l41 43l-245 247z" />
<glyph unicode="&#xdc;" horiz-adv-x="1136" d="M156 365q0 -178 125 -283q119 -96 300 -96t293 94q130 107 130 285v1097h-84v-1097q0 -137 -100.5 -216.5t-242.5 -79t-240.5 77t-98.5 218.5v1097h-82v-1097zM367 1630q2 -31 20 -49q25 -18 47 -18q68 -1 68 67q-16 68 -68 68q-68 -12 -67 -68zM647 1630q2 -31 21 -49 q25 -18 47 -18q67 -1 67 67q-16 68 -67 68q-68 -12 -68 -68z" />
<glyph unicode="&#xdd;" horiz-adv-x="1046" d="M68 1462l415 -731v-731h84v731l418 731h-96l-365 -633l-360 633h-96zM504 1579l43 -35l229 228l-43 45z" />
<glyph unicode="&#xde;" horiz-adv-x="1003" d="M156 0h82v375h274q168 0 282.5 100t114.5 267t-114.5 265.5t-282.5 98.5h-274v356h-82v-1462zM238 459v563h272q137 0 226 -73t89 -206t-90 -209t-225 -75h-272z" />
<glyph unicode="&#xdf;" horiz-adv-x="1103" d="M45 762h117v-762h82v1098q0 281 258 280q109 0 186.5 -71.5t77.5 -179.5t-72 -194.5t-182 -86.5v-82q438 0 438 -334q0 -141 -87 -243.5t-224 -102.5h-233v-84h231q186 0 291.5 121t105.5 306t-114 294q-94 88 -234 106q164 109 164 303q0 141 -102 238q-104 94 -257 94 t-241 -98t-88 -264v-254h-117v-84z" />
<glyph unicode="&#xe0;" horiz-adv-x="1044" d="M72 422q0 -184 126 -310t320.5 -126t327.5 159v-145h84v846h-84v-148q-135 160 -328.5 160t-319.5 -126t-126 -310zM154 422.5q0 146.5 103 250t249.5 103.5t251 -104.5t104.5 -250.5t-103 -249.5t-249.5 -103.5t-251 104t-104.5 250.5zM262 1233l268 -272l52 47 l-275 274z" />
<glyph unicode="&#xe1;" horiz-adv-x="1044" d="M72 422q0 -184 126 -310t320.5 -126t327.5 159v-145h84v846h-84v-148q-135 160 -328.5 160t-319.5 -126t-126 -310zM154 422.5q0 146.5 103 250t249.5 103.5t251 -104.5t104.5 -250.5t-103 -249.5t-249.5 -103.5t-251 104t-104.5 250.5zM442 1008l52 -47l268 272l-45 49z " />
<glyph unicode="&#xe2;" horiz-adv-x="1044" d="M72 422q0 -184 126 -310t320.5 -126t327.5 159v-145h84v846h-84v-148q-135 160 -328.5 160t-319.5 -126t-126 -310zM154 422.5q0 146.5 103 250t249.5 103.5t251 -104.5t104.5 -250.5t-103 -249.5t-249.5 -103.5t-251 104t-104.5 250.5zM252 1016l45 -45l205 203 l205 -203l41 45l-246 246z" />
<glyph unicode="&#xe3;" horiz-adv-x="1044" d="M72 422q0 -184 126 -310t320.5 -126t327.5 159v-145h84v846h-84v-148q-135 160 -328.5 160t-319.5 -126t-126 -310zM154 422.5q0 146.5 103 250t249.5 103.5t251 -104.5t104.5 -250.5t-103 -249.5t-249.5 -103.5t-251 104t-104.5 250.5zM186 1051l56 -45q63 68 139 67 l61 -8q27 -8 71 -37t124 -29t133 29l33 27l39 41l-58 45q-51 -57 -141 -58l-63 9l-60 26q-47 30 -79.5 33.5t-59.5 3.5q-137 0 -195 -104z" />
<glyph unicode="&#xe4;" horiz-adv-x="1044" d="M72 422q0 -184 126 -310t320.5 -126t327.5 159v-145h84v846h-84v-148q-135 160 -328.5 160t-319.5 -126t-126 -310zM154 422.5q0 146.5 103 250t249.5 103.5t251 -104.5t104.5 -250.5t-103 -249.5t-249.5 -103.5t-251 104t-104.5 250.5zM283 1065q2 -31 20 -49 q25 -18 47 -19q68 0 68 68q-16 68 -68 68q-68 -12 -67 -68zM563 1065q2 -31 21 -49q25 -18 47 -19q67 0 67 68q-16 68 -67 68q-68 -12 -68 -68z" />
<glyph unicode="&#xe5;" horiz-adv-x="1044" d="M72 422q0 -184 126 -310t320.5 -126t327.5 159v-145h84v846h-84v-148q-135 160 -328.5 160t-319.5 -126t-126 -310zM154 422.5q0 146.5 103 250t249.5 103.5t251 -104.5t104.5 -250.5t-103 -249.5t-249.5 -103.5t-251 104t-104.5 250.5zM330 1102q0 -68 51 -119t119 -51 t119 51t51 119t-51.5 119t-118.5 51q-68 0 -119 -51.5t-51 -118.5zM373 1104q0 49 39 88t88 39t88 -39t39 -88t-39 -88t-88 -39t-88 39t-39 88z" />
<glyph unicode="&#xe6;" horiz-adv-x="1798" d="M72 422q0 -184 126 -310t320.5 -126t327.5 159v-145h84v160q127 -176 360 -176q80 0 144 20q166 53 245 205l-75 35q-70 -113 -149 -146t-165 -32q-168 0 -262 101t-94 273h792q0 188 -124.5 302t-311.5 114q-238 0 -360 -176v166h-84v-148q-135 160 -328.5 160 t-319.5 -126t-126 -310zM154 422.5q0 146.5 103 250t249.5 103.5t251 -104.5t104.5 -250.5t-103 -249.5t-249.5 -103.5t-251 104t-104.5 250.5zM946 520q82 254 344 254q152 0 237 -80t105 -174h-686z" />
<glyph unicode="&#xe7;" horiz-adv-x="897" d="M96 428q0 -184 108.5 -305t284.5 -139l-26 -80l39 -31q20 -20 20 -43l-4 -16l-6 -13q-16 -16 -36 -16t-38 12l-32 29l-27 -72q43 -51 97 -51t93 33q37 33 37 80q-12 80 -55 100l27 70q82 0 155 37l60 36v111l-64 -51q-88 -51 -194 -51q-154 0 -254.5 100t-100.5 255 t99.5 255t255.5 100q109 0 196 -51l62 -51v110l-66 37q-92 37 -192 37q-188 0 -313.5 -124t-125.5 -308z" />
<glyph unicode="&#xe8;" horiz-adv-x="1003" d="M70 423q0 -189 124 -314t314 -125q80 0 143 20q166 53 246 205l-76 35q-70 -113 -148.5 -146t-164.5 -32q-168 0 -262 101t-94 273h792q0 186 -124 303t-313 117t-313 -124t-124 -313zM164 520q82 258 344 258q125 0 223.5 -70.5t118.5 -187.5h-686zM279 1233l268 -272 l51 47l-274 274z" />
<glyph unicode="&#xe9;" horiz-adv-x="1003" d="M70 423q0 -189 124 -314t314 -125q80 0 143 20q166 53 246 205l-76 35q-70 -113 -148.5 -146t-164.5 -32q-168 0 -262 101t-94 273h792q0 186 -124 303t-313 117t-313 -124t-124 -313zM164 520q82 258 344 258q125 0 223.5 -70.5t118.5 -187.5h-686zM410 1008l49 -47 l270 272l-45 49z" />
<glyph unicode="&#xea;" horiz-adv-x="1003" d="M70 423q0 -189 124 -314t314 -125q80 0 143 20q166 53 246 205l-76 35q-70 -113 -148.5 -146t-164.5 -32q-168 0 -262 101t-94 273h792q0 186 -124 303t-313 117t-313 -124t-124 -313zM164 520q82 258 344 258q125 0 223.5 -70.5t118.5 -187.5h-686zM268 1016l43 -45 l205 203l205 -203l41 45l-246 246z" />
<glyph unicode="&#xeb;" horiz-adv-x="1003" d="M70 423q0 -189 124 -314t314 -125q80 0 143 20q166 53 246 205l-76 35q-70 -113 -148.5 -146t-164.5 -32q-168 0 -262 101t-94 273h792q0 186 -124 303t-313 117t-313 -124t-124 -313zM164 520q82 258 344 258q125 0 223.5 -70.5t118.5 -187.5h-686zM297 1065 q2 -31 20 -49q25 -18 48 -19q67 0 67 68q-16 68 -67 68q-68 -12 -68 -68zM578 1065q2 -31 20 -49q25 -18 47 -19q68 0 68 68q-16 68 -68 68q-68 -12 -67 -68z" />
<glyph unicode="&#xec;" horiz-adv-x="376" d="M-78 1233l271 -272l49 47l-273 274zM150 0h83v846h-83v-846z" />
<glyph unicode="&#xed;" horiz-adv-x="376" d="M150 0h83v846h-83v-846zM150 1008l51 -47l270 272l-47 49z" />
<glyph unicode="&#xee;" horiz-adv-x="522" d="M16 1016l45 -45l205 203l205 -203l41 45l-246 246zM219 0h84v846h-84v-846z" />
<glyph unicode="&#xef;" horiz-adv-x="376" d="M-20 1065q12 -68 67 -68q68 0 68 68q-16 68 -68 68q-68 -16 -67 -68zM150 0h83v846h-83v-846zM260 1065q2 -31 21 -49q25 -18 47 -19q67 0 67 68q-16 68 -67 68q-68 -12 -68 -68z" />
<glyph unicode="&#xf0;" horiz-adv-x="1019" d="M72 422q0 -184 126 -310t310 -126t310 126t126 310q0 299 -71 463t-220 297l187 116l-82 54l-180 -113q-104 74 -216 104l-73 -71l104 -43l92 -47l-178 -113l82 -53l176 110q209 -152 260 -405q-131 137 -316 137t-311 -126t-126 -310zM154 422.5q0 146.5 103 250 t249.5 103.5t251 -104.5t104.5 -250.5t-103 -249.5t-249.5 -103.5t-251 104t-104.5 250.5z" />
<glyph unicode="&#xf1;" horiz-adv-x="923" d="M131 1051l57 -45q51 68 127 67q45 0 74 -12l60 -25q61 -37 140.5 -37t127.5 29l33 27l38 41l-59 45q-43 -43 -59 -49l-25 -9h-47l-72 9l-59 24q-10 6 -19 10q-61 29 -122 29q-137 0 -195 -104zM135 0h84v514q0 121 62.5 191t181.5 69q242 0 242 -268v-506h83v514 q0 162 -83.5 252t-255.5 90t-230 -113v103h-84v-846z" />
<glyph unicode="&#xf2;" horiz-adv-x="1019" d="M72 421q0 -183 126 -309t310 -126t310 126t126 310t-127 311t-310 127t-309 -128t-126 -311zM154 420.5q0 144.5 105 251t252 106.5t249 -103t102 -251.5t-103 -252t-249.5 -103.5t-251 104t-104.5 248.5zM276 1233l269 -272l51 47l-274 274z" />
<glyph unicode="&#xf3;" horiz-adv-x="1019" d="M72 421q0 -183 126 -309t310 -126t310 126t126 310t-127 311t-310 127t-309 -128t-126 -311zM154 420.5q0 144.5 105 251t252 106.5t249 -103t102 -251.5t-103 -252t-249.5 -103.5t-251 104t-104.5 248.5zM418 1008l51 -47l268 272l-45 49z" />
<glyph unicode="&#xf4;" horiz-adv-x="1019" d="M72 421q0 -183 126 -309t310 -126t310 126t126 310t-127 311t-310 127t-309 -128t-126 -311zM154 420.5q0 144.5 105 251t252 106.5t249 -103t102 -251.5t-103 -252t-249.5 -103.5t-251 104t-104.5 248.5zM252 1016l45 -45l205 203l205 -203l41 45l-246 246z" />
<glyph unicode="&#xf5;" horiz-adv-x="1019" d="M72 421q0 -183 126 -309t310 -126t310 126t126 310t-127 311t-310 127t-309 -128t-126 -311zM154 420.5q0 144.5 105 251t252 106.5t249 -103t102 -251.5t-103 -252t-249.5 -103.5t-251 104t-104.5 248.5zM168 1051l57 -45q51 68 127 67q45 0 74 -12l59 -25 q61 -37 141 -37t128 29l32 27l39 41l-59 45q-43 -43 -59 -49l-25 -9h-47l-72 9l-59 24q-10 6 -18 10q-62 29 -124 29q-137 0 -194 -104z" />
<glyph unicode="&#xf6;" horiz-adv-x="1019" d="M72 421q0 -183 126 -309t310 -126t310 126t126 310t-127 311t-310 127t-309 -128t-126 -311zM154 420.5q0 144.5 105 251t252 106.5t249 -103t102 -251.5t-103 -252t-249.5 -103.5t-251 104t-104.5 248.5zM291 1065q2 -31 20 -49q25 -18 47 -19q68 0 68 68q-16 68 -68 68 q-68 -12 -67 -68zM571 1065q2 -31 21 -49q25 -18 47 -19q68 0 68 68q-16 68 -68 68q-68 -12 -68 -68z" />
<glyph unicode="&#xf7;" horiz-adv-x="741" d="M117 489h526v105h-526v-105zM311 299q2 -31 21 -49q25 -18 47 -19q67 0 67 68q-16 68 -67 68q-68 -12 -68 -68zM311 780q2 -31 21 -49q25 -18 47 -18q67 -1 67 67q-16 68 -67 68q-68 -12 -68 -68z" />
<glyph unicode="&#xf8;" horiz-adv-x="1019" d="M72 410.5q0 -195.5 157 -324.5l-73 -106l69 -52l76 109q94 -51 207 -51q184 0 310 126t126 314.5t-143 318.5l84 121l-74 49l-82 -116q-102 59 -221 59q-184 0 -310 -126t-126 -321.5zM153.5 414.5q0.5 154.5 103.5 258t251 103.5q90 0 174 -45l-406 -577 q-123 106 -122.5 260.5zM350 104l404 574q108 -102 108 -252.5t-103 -254t-251 -103.5l-82 8l-39 12z" />
<glyph unicode="&#xf9;" horiz-adv-x="878" d="M125 317q0 -158 82 -245.5t232.5 -87.5t233.5 88.5t83 244.5v529h-82v-529q0 -252 -236 -251q-121 0 -176 65q-53 66 -53 186v529h-84v-529zM180 1233l269 -272l51 47l-275 274z" />
<glyph unicode="&#xfa;" horiz-adv-x="878" d="M125 317q0 -158 82 -245.5t232.5 -87.5t233.5 88.5t83 244.5v529h-82v-529q0 -252 -236 -251q-121 0 -176 65q-53 66 -53 186v529h-84v-529zM399 1008l50 -47l270 272l-45 49z" />
<glyph unicode="&#xfb;" horiz-adv-x="878" d="M125 317q0 -158 82 -245.5t232.5 -87.5t233.5 88.5t83 244.5v529h-82v-529q0 -252 -236 -251q-121 0 -176 65q-53 66 -53 186v529h-84v-529zM193 1016l43 -45l204 203l205 -203l43 45l-248 246z" />
<glyph unicode="&#xfc;" horiz-adv-x="878" d="M125 317q0 -158 82 -245.5t232.5 -87.5t233.5 88.5t83 244.5v529h-82v-529q0 -252 -236 -251q-121 0 -176 65q-53 66 -53 186v529h-84v-529zM229 1065q2 -31 21 -49q25 -18 47 -19q68 0 68 68q-16 68 -68 68q-68 -12 -68 -68zM510 1065q2 -31 20 -49q25 -18 48 -19 q67 0 67 68q-16 68 -67 68q-68 -12 -68 -68z" />
<glyph unicode="&#xfd;" d="M102 731q0 -178 73 -340t214 -264l-82 -119l74 -49l82 119q180 -98 391 -98q332 0 543 209.5t211 541.5q0 379 -273 594l86 123l-75 47l-84 -119q-180 106 -408 107q-332 0 -542 -210t-210 -542zM186 731q0 293 189 481q184 188 479 189q192 0 360 -94l-776 -1110 q-252 184 -252 534zM471 850q0 -68 51 -119t119 -51t119 51t51 119t-51 119t-119 51t-119 -51t-51 -119zM512 147l774 1108q141 -115 197 -274q-45 39 -109 39t-115 -51t-51 -119t51.5 -119t118.5 -51q90 0 146 84v-33q0 -297 -187 -483q-188 -184 -483 -185q-184 0 -342 84 zM514 852q0 49 39 88t88 39t88 -39t39 -88t-39 -88t-88 -39t-88 39t-39 88zM616 817q0 -18 13.5 -31.5t32.5 -13.5q18 0 31.5 13.5t13.5 31.5t-13.5 31.5t-31.5 13.5t-32 -13.5t-14 -31.5zM821 309q84 -90 223.5 -90t217.5 90l-37 45q-76 -76 -178 -75.5t-183 79.5z M1251 852q0 49 39 88t88 39t88 -39t39 -88t-39 -88t-88 -39t-88 39t-39 88zM1356 811q0 -18 13 -31.5t32 -13.5q18 0 31.5 13.5t13.5 31.5t-13.5 31.5t-31.5 13.5t-31.5 -13.5t-13.5 -31.5z" />
<glyph unicode="&#xfe;" horiz-adv-x="1050" d="M131 -397h84v555q137 -172 334.5 -172t323.5 126t126 310t-126 310t-310 126q-217 0 -348 -172v830h-84v-1913zM209 422.5q0 146.5 103 250t249.5 103.5t251.5 -104.5t105 -250.5t-103.5 -249.5t-250 -103.5t-251 104t-104.5 250.5z" />
<glyph unicode="&#xff;" horiz-adv-x="911" d="M57 846l357 -768l-219 -475h94l577 1243h-92l-311 -668l-316 668h-90zM262 1065q2 -31 21 -49q25 -18 47 -19q67 0 67 68q-16 68 -67 68q-68 -12 -68 -68zM543 1065q2 -31 20 -49q25 -18 47 -19q68 0 68 68q-16 68 -68 68q-68 -12 -67 -68z" />
<glyph unicode="&#x152;" horiz-adv-x="2351" d="M102 731q0 -332 210 -542t542 -209q223 0 396 98t274 289v-367h702v84h-618v672h618v90h-618v532h618v84h-702v-366q-96 188 -274.5 287t-395.5 100q-332 0 -542 -210t-210 -542zM186 731q0 293 188.5 481.5t481.5 188.5t480.5 -187.5t187.5 -483.5t-187 -482 q-188 -184 -482 -184.5t-481 187t-188 480.5z" />
<glyph unicode="&#x153;" horiz-adv-x="1808" d="M72 422q0 -184 126 -310t310 -126q127 0 233 66.5t160 183.5q55 -119 162 -187q109 -66 240 -65q80 0 143 20q166 53 246 205l-76 35q-70 -113 -149 -146t-164 -32q-168 0 -262.5 101t-94.5 273h793q0 188 -125 302t-311 114q-133 0 -242 -65.5t-160 -182.5 q-57 113 -162.5 182t-230.5 68q-184 0 -310 -126t-126 -310zM154 422.5q0 146.5 103 250t249.5 103.5t251 -104.5t104.5 -250.5t-103 -249.5t-249.5 -103.5t-251 104t-104.5 250.5zM958 520q82 254 345 254q152 0 247 -90q75 -70 95 -164h-687z" />
<glyph unicode="&#x178;" horiz-adv-x="1046" d="M68 1462l415 -731v-731h84v731l418 731h-96l-365 -633l-360 633h-96zM309 1630q2 -31 21 -49q25 -18 47 -18q67 -1 67 67q-16 68 -67 68q-68 -12 -68 -68zM590 1630q2 -31 20 -49q25 -18 47 -18q68 -1 68 67q-16 68 -68 68q-68 -12 -67 -68z" />
<glyph unicode="&#x2c6;" horiz-adv-x="774" d="M147 1016l41 -45l205 203l205 -203l41 45l-246 246z" />
<glyph unicode="&#x2dc;" horiz-adv-x="866" d="M115 1051l57 -45q51 68 127 67q45 0 74 -12l59 -25q61 -37 141 -37t127 29l33 27l39 41l-59 45q-43 -43 -60 -49l-24 -9h-47l-72 9l-59 24q-10 6 -19 10q-61 29 -123 29q-137 0 -194 -104z" />
<glyph unicode="&#x2000;" horiz-adv-x="924" />
<glyph unicode="&#x2001;" horiz-adv-x="1849" />
<glyph unicode="&#x2002;" horiz-adv-x="924" />
<glyph unicode="&#x2003;" horiz-adv-x="1849" />
<glyph unicode="&#x2004;" horiz-adv-x="616" />
<glyph unicode="&#x2005;" horiz-adv-x="462" />
<glyph unicode="&#x2006;" horiz-adv-x="308" />
<glyph unicode="&#x2007;" horiz-adv-x="308" />
<glyph unicode="&#x2008;" horiz-adv-x="231" />
<glyph unicode="&#x2009;" horiz-adv-x="369" />
<glyph unicode="&#x200a;" horiz-adv-x="102" />
<glyph unicode="&#x2010;" horiz-adv-x="555" d="M37 500h432v84h-432v-84z" />
<glyph unicode="&#x2011;" horiz-adv-x="555" d="M37 500h432v84h-432v-84z" />
<glyph unicode="&#x2012;" horiz-adv-x="555" d="M37 500h432v84h-432v-84z" />
<glyph unicode="&#x2013;" horiz-adv-x="761" d="M86 500h596v84h-596v-84z" />
<glyph unicode="&#x2014;" horiz-adv-x="1263" d="M106 500h1065v84h-1065v-84z" />
<glyph unicode="&#x2018;" horiz-adv-x="333" d="M117 1155h108v148h-67v92q0 55 37 96h-41q-37 -29 -37 -96v-240z" />
<glyph unicode="&#x2019;" horiz-adv-x="323" d="M129 1360h68v-92q0 -57 -37 -97h41q37 46 37 97v239h-109v-147z" />
<glyph unicode="&#x201a;" horiz-adv-x="323" d="M129 123h68v-92q0 -57 -37 -97h41q20 14 26 43q11 25 11 54v239h-109v-147z" />
<glyph unicode="&#x201c;" horiz-adv-x="585" d="M125 1155h108v148h-67v92q0 55 37 96h-41q-37 -29 -37 -96v-240zM360 1155h109v148h-68v92q0 55 37 96h-41q-37 -29 -37 -96v-240z" />
<glyph unicode="&#x201d;" horiz-adv-x="616" d="M135 1360h68v-92q0 -57 -37 -97h41q37 46 37 97v239h-109v-147zM371 1360h67v-92q0 -57 -37 -97h41q37 46 37 97v239h-108v-147z" />
<glyph unicode="&#x201e;" horiz-adv-x="616" d="M135 123h68v-92q0 -57 -37 -97h41q20 14 26 43q11 25 11 54v239h-109v-147zM371 123h67v-92q0 -57 -37 -97h41q20 14 27 43q10 25 10 54v239h-108v-147z" />
<glyph unicode="&#x2022;" horiz-adv-x="602" d="M98 670q0 -70 50 -119t121 -49t120 49t49 119t-49 121t-120 51t-122 -49q-49 -53 -49 -123z" />
<glyph unicode="&#x2026;" horiz-adv-x="856" d="M-8 55q2 -31 20 -49q25 -18 47 -18q68 -1 68 67q-16 68 -68 68q-68 -12 -67 -68zM285 55q2 -31 20 -49q25 -18 47 -18q68 -1 68 67q-16 68 -68 68q-68 -12 -67 -68zM578 55q2 -31 20 -49q25 -18 47 -18q68 -1 68 67q-16 68 -68 68q-68 -12 -67 -68z" />
<glyph unicode="&#x202f;" horiz-adv-x="369" />
<glyph unicode="&#x2039;" horiz-adv-x="575" d="M53 522l377 -379l43 43l-338 336l346 344l-43 43z" />
<glyph unicode="&#x203a;" horiz-adv-x="575" d="M92 866l344 -344l-336 -336l41 -43l379 379l-387 387z" />
<glyph unicode="&#x205f;" horiz-adv-x="462" />
<glyph unicode="&#x20ac;" horiz-adv-x="1437" d="M2 559h137q39 -215 195 -371q209 -209 540 -208q272 0 416 106l99 72v96q-119 -86 -197 -125q-135 -66 -318 -66q-293 0 -481 189q-127 127 -168 307h1137v82h-1151q-4 46 -4 89t4 79h1151v84h-1139q37 186 172 319q184 188 480 188.5t514 -177.5v104 q-196 154 -521.5 155t-535.5 -210q-156 -156 -195 -379h-135v-84h123q-2 -18 -2 -37v-52q0 -33 4 -79h-125v-82z" />
<glyph unicode="&#x2122;" horiz-adv-x="690" d="M80 1434h104v-316h15v316h104v12h-223v-12zM293 1120h14l62 283l102 -299l102 299l58 -283h14l-67 330l-107 -303l-104 303z" />
<glyph unicode="&#xe000;" horiz-adv-x="849" d="M0 0v850h850v-850h-850z" />
</font>
</defs>
</svg>
