<?xml version="1.0" encoding="utf-8"?>
<!-- Generator: Adobe Illustrator 17.0.2, SVG Export Plug-In . SVG Version: 6.00 Build 0)  -->
<!DOCTYPE svg PUBLIC "-//W3C//DTD SVG 1.1//EN" "http://www.w3.org/Graphics/SVG/1.1/DTD/svg11.dtd">
<svg version="1.1" id="Layer_1" xmlns="http://www.w3.org/2000/svg" xmlns:xlink="http://www.w3.org/1999/xlink" x="0px" y="0px"
	 width="99px" height="255px" viewBox="0 0 99 255" enable-background="new 0 0 99 255" xml:space="preserve">
<path fill="#042D2B" d="M68.656,65.656C74.305,60.62,78.2,52.968,78.2,44.804c0-15.188-12.312-27.5-27.5-27.5
	s-27.5,12.312-27.5,27.5c0,8.068,3.766,15.541,9.3,20.571l-6.436,7.046C18.5,65.645,13.74,55.802,13.74,44.848
	c0-20.437,16.567-37.004,37.004-37.004s37.004,16.567,37.004,37.004c0,11.088-4.877,21.037-12.602,27.819L68.656,65.656z"/>
<path fill="#1EC282" d="M76.517,35.309C72.651,24.8,62.551,17.304,50.7,17.304c-15.188,0-27.5,12.312-27.5,27.5
	c0,8.068,3.766,15.541,9.3,20.571l-6.436,7.046C18.5,65.645,13.74,55.802,13.74,44.848c0-20.437,16.567-37.004,37.004-37.004
	c15.817,0,29.316,9.923,34.611,23.884"/>
<path fill="#042D2B" d="M68.656,150.656c5.649-5.037,9.544-12.689,9.544-20.852c0-15.188-12.312-27.5-27.5-27.5
	s-27.5,12.312-27.5,27.5c0,8.068,3.766,15.541,9.3,20.571l-6.436,7.046c-7.564-6.775-12.324-16.618-12.324-27.573
	c0-20.437,16.567-37.004,37.004-37.004s37.004,16.567,37.004,37.004c0,11.088-4.877,21.037-12.602,27.819L68.656,150.656z"/>
<path fill="#16C288" d="M180.355,31.727"/>
<path fill="#1EC282" d="M62.488,104.951c-3.572-1.697-7.569-2.647-11.787-2.647c-15.188,0-27.5,12.312-27.5,27.5
	c0,8.068,3.766,15.541,9.3,20.571l-6.436,7.046c-7.564-6.775-12.324-16.618-12.324-27.573c0-20.437,16.567-37.004,37.004-37.004
	c5.912,0,11.501,1.387,16.458,3.852"/>
<path fill="#042D2B" d="M68.656,234.656c5.649-5.037,9.544-12.689,9.544-20.852c0-15.188-12.312-27.5-27.5-27.5
	s-27.5,12.312-27.5,27.5c0,8.068,3.766,15.541,9.3,20.571l-6.436,7.046c-7.564-6.775-12.324-16.618-12.324-27.573
	c0-20.437,16.567-37.004,37.004-37.004s37.004,16.567,37.004,37.004c0,11.088-4.877,21.037-12.602,27.819L68.656,234.656z"/>
<path fill="#16C288" d="M87.355,200.727"/>
<path fill="#1EC282" d="M52.707,186.376c-0.662-0.048-1.331-0.072-2.006-0.072c-15.188,0-27.5,12.312-27.5,27.5
	c0,8.068,3.766,15.541,9.3,20.571l-6.436,7.046c-7.564-6.775-12.324-16.618-12.324-27.573c0-20.437,16.567-37.004,37.004-37.004
	c0.809,0,1.612,0.026,2.408,0.077"/>
<g>
	<path fill="#FFFFFF" d="M34.398,47.562c0.408,0,0.773-0.07,1.095-0.213c0.322-0.142,0.595-0.339,0.819-0.591
		s0.395-0.549,0.513-0.891c0.118-0.342,0.177-0.711,0.177-1.107v-5.25h0.612v5.25c0,0.468-0.074,0.905-0.222,1.312
		c-0.148,0.405-0.361,0.76-0.639,1.062c-0.278,0.303-0.616,0.539-1.014,0.711c-0.398,0.172-0.845,0.258-1.341,0.258
		s-0.943-0.086-1.341-0.258s-0.736-0.408-1.014-0.711c-0.278-0.302-0.491-0.656-0.639-1.062c-0.148-0.406-0.222-0.844-0.222-1.312
		v-5.25H31.8v5.244c0,0.396,0.059,0.765,0.177,1.107c0.118,0.342,0.288,0.639,0.51,0.891c0.222,0.252,0.494,0.45,0.816,0.594
		C33.625,47.49,33.99,47.562,34.398,47.562z"/>
	<path fill="#FFFFFF" d="M41.622,48h-0.618v-8.49h0.618V48z"/>
	<path fill="#FFFFFF" d="M47.412,48.27c-0.032,0.08-0.08,0.14-0.144,0.178s-0.13,0.057-0.198,0.057h-0.234l3.732-9.012
		c0.06-0.148,0.168-0.222,0.324-0.222h0.246L47.412,48.27z"/>
	<path fill="#FFFFFF" d="M59.297,47.562c0.408,0,0.773-0.07,1.095-0.213c0.322-0.142,0.595-0.339,0.819-0.591
		s0.395-0.549,0.513-0.891c0.118-0.342,0.177-0.711,0.177-1.107v-5.25h0.612v5.25c0,0.468-0.074,0.905-0.222,1.312
		c-0.148,0.405-0.361,0.76-0.639,1.062c-0.278,0.303-0.616,0.539-1.014,0.711c-0.398,0.172-0.845,0.258-1.341,0.258
		s-0.943-0.086-1.341-0.258s-0.736-0.408-1.014-0.711c-0.278-0.302-0.491-0.656-0.639-1.062c-0.148-0.406-0.222-0.844-0.222-1.312
		v-5.25h0.618v5.244c0,0.396,0.059,0.765,0.177,1.107c0.118,0.342,0.288,0.639,0.51,0.891c0.222,0.252,0.494,0.45,0.816,0.594
		C58.524,47.49,58.89,47.562,59.297,47.562z"/>
	<path fill="#FFFFFF" d="M67.589,43.645l-2.928-4.135h0.606c0.056,0,0.097,0.012,0.123,0.036c0.026,0.024,0.049,0.052,0.069,0.084
		l2.58,3.72c0.012-0.032,0.025-0.063,0.039-0.093c0.014-0.03,0.031-0.061,0.051-0.093l2.49-3.528
		c0.023-0.032,0.051-0.061,0.078-0.087c0.027-0.026,0.062-0.039,0.102-0.039h0.588l-2.933,4.104L71.508,48h-0.605
		c-0.057,0-0.102-0.017-0.133-0.051s-0.059-0.067-0.078-0.1l-2.676-3.912c-0.016,0.061-0.044,0.118-0.084,0.175l-2.628,3.737
		c-0.028,0.036-0.06,0.07-0.096,0.103C65.171,47.984,65.129,48,65.082,48h-0.558L67.589,43.645z"/>
</g>
<g>
	<path fill="#FFFFFF" d="M39.289,119.51v0.51h-4.47v3.57h3.87v0.51h-3.87v3.9H34.2v-8.49H39.289z"/>
	<path fill="#FFFFFF" d="M41.137,128v-5.971h0.3c0.068,0,0.117,0.015,0.147,0.043c0.03,0.027,0.047,0.076,0.051,0.144l0.048,1.261
		c0.192-0.484,0.448-0.863,0.768-1.138c0.32-0.274,0.714-0.411,1.182-0.411c0.18,0,0.346,0.02,0.498,0.057
		c0.152,0.039,0.296,0.094,0.432,0.166l-0.078,0.396c-0.012,0.063-0.052,0.097-0.12,0.097c-0.024,0-0.058-0.009-0.102-0.024
		c-0.044-0.017-0.099-0.034-0.165-0.054c-0.066-0.021-0.147-0.039-0.243-0.055c-0.096-0.016-0.206-0.023-0.33-0.023
		c-0.452,0-0.823,0.14-1.113,0.42c-0.29,0.279-0.525,0.684-0.705,1.212V128H41.137z"/>
	<path fill="#FFFFFF" d="M48.894,121.934c0.428,0,0.811,0.073,1.149,0.219c0.338,0.146,0.623,0.354,0.855,0.621
		c0.232,0.269,0.409,0.592,0.531,0.97c0.122,0.378,0.183,0.801,0.183,1.269c0,0.469-0.061,0.891-0.183,1.267
		c-0.122,0.376-0.299,0.697-0.531,0.966c-0.232,0.268-0.517,0.474-0.855,0.618c-0.338,0.144-0.721,0.216-1.149,0.216
		c-0.428,0-0.811-0.072-1.149-0.216c-0.338-0.145-0.624-0.351-0.858-0.618c-0.234-0.269-0.412-0.59-0.534-0.966
		s-0.183-0.798-0.183-1.267c0-0.468,0.061-0.891,0.183-1.269s0.3-0.701,0.534-0.97c0.234-0.268,0.52-0.475,0.858-0.621
		C48.083,122.007,48.466,121.934,48.894,121.934z M48.894,127.628c0.356,0,0.667-0.061,0.933-0.183
		c0.266-0.122,0.488-0.297,0.666-0.525c0.178-0.228,0.311-0.503,0.399-0.825c0.088-0.321,0.132-0.683,0.132-1.083
		c0-0.396-0.044-0.756-0.132-1.08c-0.088-0.324-0.221-0.601-0.399-0.83c-0.178-0.23-0.4-0.408-0.666-0.531
		c-0.266-0.124-0.577-0.187-0.933-0.187s-0.667,0.062-0.933,0.187c-0.266,0.123-0.488,0.301-0.666,0.531
		c-0.178,0.229-0.312,0.506-0.402,0.83c-0.09,0.324-0.135,0.685-0.135,1.08c0,0.4,0.045,0.762,0.135,1.083
		c0.09,0.322,0.224,0.598,0.402,0.825c0.178,0.229,0.4,0.403,0.666,0.525S48.538,127.628,48.894,127.628z"/>
	<path fill="#FFFFFF" d="M53.832,128v-5.971h0.312c0.104,0,0.164,0.051,0.18,0.15l0.054,0.9c0.272-0.344,0.589-0.621,0.951-0.831
		c0.362-0.21,0.765-0.315,1.209-0.315c0.328,0,0.617,0.053,0.867,0.156s0.457,0.254,0.621,0.45s0.288,0.433,0.372,0.708
		s0.126,0.588,0.126,0.936V128h-0.57v-3.816c0-0.56-0.128-0.998-0.384-1.316s-0.648-0.477-1.176-0.477
		c-0.392,0-0.756,0.101-1.092,0.303c-0.336,0.201-0.636,0.479-0.9,0.83V128H53.832z"/>
	<path fill="#FFFFFF" d="M62.67,128.096c-0.404,0-0.718-0.111-0.942-0.336c-0.224-0.224-0.336-0.569-0.336-1.038v-4.079h-0.858
		c-0.044,0-0.08-0.013-0.108-0.037c-0.028-0.023-0.042-0.058-0.042-0.102v-0.222l1.02-0.072l0.143-2.136
		c0.004-0.036,0.019-0.068,0.044-0.096c0.025-0.028,0.06-0.043,0.104-0.043h0.267v2.28h1.878v0.427h-1.878v4.05
		c0,0.164,0.021,0.305,0.063,0.423s0.1,0.215,0.174,0.291s0.161,0.132,0.261,0.168c0.1,0.036,0.208,0.054,0.324,0.054
		c0.144,0,0.268-0.021,0.372-0.062s0.194-0.088,0.27-0.139c0.076-0.05,0.138-0.096,0.186-0.138s0.086-0.063,0.114-0.063
		c0.032,0,0.064,0.021,0.096,0.061l0.156,0.252c-0.152,0.168-0.345,0.303-0.579,0.405C63.165,128.045,62.922,128.096,62.67,128.096z
		"/>
	<path fill="#FFFFFF" d="M65.67,124.196h2.79v0.485h-2.79V124.196z"/>
	<path fill="#FFFFFF" d="M46.561,133.91v0.51h-4.47v3.433h3.72v0.498h-3.72v3.54h4.47v0.51h-5.088v-8.49H46.561z"/>
	<path fill="#FFFFFF" d="M48.997,142.4v-5.97h0.312c0.104,0,0.164,0.05,0.18,0.149l0.054,0.9c0.272-0.344,0.589-0.621,0.951-0.831
		c0.362-0.21,0.765-0.315,1.209-0.315c0.328,0,0.617,0.053,0.867,0.156c0.25,0.104,0.457,0.254,0.621,0.45s0.288,0.432,0.372,0.708
		s0.126,0.588,0.126,0.936v3.816h-0.57v-3.816c0-0.56-0.128-0.999-0.384-1.316c-0.256-0.318-0.648-0.478-1.176-0.478
		c-0.392,0-0.756,0.102-1.092,0.304s-0.636,0.479-0.9,0.831v4.476H48.997z"/>
	<path fill="#FFFFFF" d="M60.442,142.4c-0.099,0-0.156-0.052-0.172-0.156l-0.061-0.941c-0.264,0.359-0.574,0.646-0.928,0.857
		s-0.752,0.318-1.192,0.318c-0.733,0-1.305-0.254-1.715-0.762c-0.411-0.509-0.616-1.271-0.616-2.286
		c0-0.437,0.057-0.844,0.171-1.222s0.282-0.705,0.504-0.983c0.223-0.278,0.495-0.497,0.817-0.657c0.322-0.16,0.694-0.24,1.114-0.24
		c0.405,0,0.755,0.075,1.051,0.226c0.297,0.149,0.553,0.369,0.77,0.656v-3.54h0.57v8.73H60.442z M58.251,142.017
		c0.396,0,0.755-0.103,1.076-0.307c0.32-0.203,0.607-0.487,0.859-0.852v-3.15c-0.232-0.34-0.488-0.579-0.767-0.72
		c-0.278-0.14-0.594-0.21-0.946-0.21s-0.661,0.064-0.925,0.192c-0.265,0.128-0.486,0.309-0.664,0.543
		c-0.178,0.233-0.312,0.514-0.403,0.84s-0.135,0.685-0.135,1.077c0,0.888,0.165,1.541,0.493,1.959
		C57.167,141.808,57.638,142.017,58.251,142.017z"/>
</g>
<g>
	<path fill="#FFFFFF" d="M35.422,209.888c0.024-0.063,0.049-0.127,0.075-0.188c0.026-0.062,0.055-0.121,0.087-0.177l3.336-5.898
		c0.032-0.052,0.064-0.084,0.096-0.097c0.032-0.012,0.076-0.018,0.132-0.018h0.426V212h-0.54v-7.236c0-0.104,0.006-0.213,0.018-0.33
		l-3.342,5.935c-0.056,0.104-0.136,0.156-0.24,0.156h-0.096c-0.1,0-0.18-0.053-0.24-0.156l-3.432-5.94
		c0.012,0.116,0.018,0.229,0.018,0.336V212h-0.534v-8.49h0.42c0.056,0,0.101,0.006,0.135,0.018c0.034,0.013,0.067,0.045,0.099,0.097
		l3.426,5.904C35.326,209.64,35.378,209.76,35.422,209.888z"/>
	<path fill="#FFFFFF" d="M44.8,205.934c0.428,0,0.811,0.073,1.149,0.219c0.338,0.146,0.623,0.354,0.855,0.621
		c0.232,0.269,0.409,0.592,0.531,0.97c0.122,0.378,0.183,0.801,0.183,1.269c0,0.469-0.061,0.891-0.183,1.267
		c-0.122,0.376-0.299,0.697-0.531,0.966c-0.232,0.268-0.517,0.474-0.855,0.618c-0.338,0.144-0.721,0.216-1.149,0.216
		c-0.428,0-0.811-0.072-1.149-0.216c-0.338-0.145-0.624-0.351-0.858-0.618c-0.234-0.269-0.412-0.59-0.534-0.966
		s-0.183-0.798-0.183-1.267c0-0.468,0.061-0.891,0.183-1.269s0.3-0.701,0.534-0.97c0.234-0.268,0.52-0.475,0.858-0.621
		C43.989,206.007,44.372,205.934,44.8,205.934z M44.8,211.628c0.356,0,0.667-0.061,0.933-0.183c0.266-0.122,0.488-0.297,0.666-0.525
		c0.178-0.228,0.311-0.503,0.399-0.825c0.088-0.321,0.132-0.683,0.132-1.083c0-0.396-0.044-0.756-0.132-1.08
		c-0.088-0.324-0.221-0.601-0.399-0.83c-0.178-0.23-0.4-0.408-0.666-0.531c-0.266-0.124-0.577-0.187-0.933-0.187
		s-0.667,0.062-0.933,0.187c-0.266,0.123-0.488,0.301-0.666,0.531c-0.178,0.229-0.312,0.506-0.402,0.83
		c-0.09,0.324-0.135,0.685-0.135,1.08c0,0.4,0.045,0.762,0.135,1.083c0.09,0.322,0.224,0.598,0.402,0.825
		c0.178,0.229,0.4,0.403,0.666,0.525S44.444,211.628,44.8,211.628z"/>
	<path fill="#FFFFFF" d="M51.364,212.096c-0.404,0-0.718-0.111-0.942-0.336c-0.224-0.224-0.336-0.569-0.336-1.038v-4.079h-0.858
		c-0.044,0-0.08-0.013-0.108-0.037c-0.028-0.023-0.042-0.058-0.042-0.102v-0.222l1.02-0.072l0.143-2.136
		c0.004-0.036,0.019-0.068,0.044-0.096c0.025-0.028,0.06-0.043,0.104-0.043h0.267v2.28h1.878v0.427h-1.878v4.05
		c0,0.164,0.021,0.305,0.063,0.423s0.1,0.215,0.174,0.291s0.161,0.132,0.261,0.168c0.1,0.036,0.208,0.054,0.324,0.054
		c0.144,0,0.268-0.021,0.372-0.062s0.194-0.088,0.27-0.139c0.076-0.05,0.138-0.096,0.186-0.138s0.086-0.063,0.114-0.063
		c0.032,0,0.064,0.021,0.096,0.061l0.156,0.252c-0.152,0.168-0.345,0.303-0.579,0.405C51.859,212.045,51.616,212.096,51.364,212.096
		z"/>
	<path fill="#FFFFFF" d="M55.726,203.973c0,0.071-0.015,0.139-0.045,0.2s-0.069,0.117-0.117,0.165
		c-0.048,0.049-0.104,0.086-0.168,0.114s-0.132,0.042-0.204,0.042c-0.072,0-0.14-0.014-0.204-0.042s-0.12-0.065-0.168-0.114
		c-0.048-0.048-0.086-0.104-0.114-0.165s-0.042-0.129-0.042-0.2c0-0.072,0.014-0.142,0.042-0.207
		c0.028-0.066,0.066-0.123,0.114-0.172c0.048-0.048,0.104-0.086,0.168-0.113c0.064-0.028,0.132-0.043,0.204-0.043
		c0.072,0,0.14,0.015,0.204,0.043c0.064,0.027,0.12,0.065,0.168,0.113c0.048,0.049,0.087,0.105,0.117,0.172
		C55.711,203.831,55.726,203.9,55.726,203.973z M55.474,206.029V212h-0.57v-5.971H55.474z"/>
	<path fill="#FFFFFF" d="M60.58,205.934c0.428,0,0.811,0.073,1.149,0.219c0.338,0.146,0.623,0.354,0.855,0.621
		c0.232,0.269,0.409,0.592,0.531,0.97c0.122,0.378,0.183,0.801,0.183,1.269c0,0.469-0.061,0.891-0.183,1.267
		c-0.122,0.376-0.299,0.697-0.531,0.966c-0.232,0.268-0.517,0.474-0.855,0.618c-0.338,0.144-0.721,0.216-1.149,0.216
		c-0.428,0-0.811-0.072-1.149-0.216c-0.338-0.145-0.624-0.351-0.858-0.618c-0.234-0.269-0.412-0.59-0.534-0.966
		s-0.183-0.798-0.183-1.267c0-0.468,0.061-0.891,0.183-1.269s0.3-0.701,0.534-0.97c0.234-0.268,0.52-0.475,0.858-0.621
		C59.769,206.007,60.152,205.934,60.58,205.934z M60.58,211.628c0.356,0,0.667-0.061,0.933-0.183
		c0.266-0.122,0.488-0.297,0.666-0.525c0.178-0.228,0.311-0.503,0.399-0.825c0.088-0.321,0.132-0.683,0.132-1.083
		c0-0.396-0.044-0.756-0.132-1.08c-0.088-0.324-0.221-0.601-0.399-0.83c-0.178-0.23-0.4-0.408-0.666-0.531
		c-0.266-0.124-0.577-0.187-0.933-0.187s-0.667,0.062-0.933,0.187c-0.266,0.123-0.488,0.301-0.666,0.531
		c-0.178,0.229-0.312,0.506-0.402,0.83c-0.09,0.324-0.135,0.685-0.135,1.08c0,0.4,0.045,0.762,0.135,1.083
		c0.09,0.322,0.224,0.598,0.402,0.825c0.178,0.229,0.4,0.403,0.666,0.525S60.224,211.628,60.58,211.628z"/>
	<path fill="#FFFFFF" d="M65.518,212v-5.971h0.312c0.104,0,0.164,0.051,0.18,0.15l0.054,0.9c0.272-0.344,0.589-0.621,0.951-0.831
		c0.362-0.21,0.765-0.315,1.209-0.315c0.328,0,0.617,0.053,0.867,0.156s0.457,0.254,0.621,0.45s0.288,0.433,0.372,0.708
		s0.126,0.588,0.126,0.936V212h-0.57v-3.816c0-0.56-0.128-0.998-0.384-1.316s-0.648-0.477-1.176-0.477
		c-0.392,0-0.756,0.101-1.092,0.303c-0.336,0.201-0.636,0.479-0.9,0.83V212H65.518z"/>
	<path fill="#FFFFFF" d="M41.527,217.814c0.268,0,0.522,0.046,0.762,0.138c0.24,0.093,0.449,0.216,0.627,0.372
		c0.178,0.156,0.32,0.337,0.426,0.543s0.163,0.421,0.171,0.646c-0.056,0.012-0.106,0.023-0.15,0.036
		c-0.092,0.02-0.164,0.029-0.216,0.029c-0.032,0-0.062-0.012-0.09-0.036c-0.028-0.023-0.048-0.058-0.06-0.102
		c-0.028-0.104-0.076-0.224-0.144-0.36c-0.068-0.136-0.16-0.264-0.276-0.384s-0.261-0.222-0.435-0.306
		c-0.174-0.084-0.379-0.126-0.615-0.126c-0.24,0-0.458,0.037-0.654,0.11c-0.196,0.074-0.364,0.179-0.504,0.312
		s-0.249,0.293-0.327,0.477c-0.078,0.185-0.117,0.387-0.117,0.606c0,0.328,0.084,0.642,0.252,0.941
		c0.168,0.301,0.428,0.622,0.78,0.967l2.676,2.64c0.18-0.288,0.323-0.588,0.429-0.9c0.106-0.312,0.175-0.613,0.207-0.905
		c0.008-0.052,0.024-0.094,0.048-0.123c0.024-0.03,0.06-0.045,0.108-0.045h0.33c-0.008,0.376-0.079,0.763-0.213,1.161
		c-0.134,0.397-0.325,0.778-0.573,1.143l1.788,1.752h-0.534c-0.072,0-0.131-0.008-0.177-0.024c-0.046-0.016-0.099-0.052-0.159-0.107
		l-1.23-1.206c-0.18,0.208-0.378,0.4-0.594,0.576c-0.216,0.176-0.45,0.327-0.702,0.453s-0.521,0.225-0.807,0.297
		c-0.286,0.071-0.587,0.107-0.903,0.107c-0.3,0-0.596-0.05-0.888-0.149c-0.292-0.101-0.553-0.247-0.783-0.441
		c-0.23-0.194-0.417-0.432-0.558-0.714c-0.142-0.282-0.213-0.603-0.213-0.963c0-0.288,0.052-0.563,0.156-0.825
		s0.246-0.502,0.426-0.72c0.18-0.218,0.394-0.413,0.642-0.585s0.516-0.312,0.804-0.42c-0.284-0.32-0.497-0.631-0.639-0.934
		c-0.142-0.302-0.213-0.625-0.213-0.969c0-0.28,0.051-0.539,0.153-0.777c0.102-0.237,0.247-0.444,0.435-0.621
		c0.188-0.176,0.413-0.313,0.675-0.413C40.91,217.864,41.203,217.814,41.527,217.814z M38.791,224.192
		c0,0.308,0.059,0.576,0.177,0.804c0.118,0.229,0.271,0.419,0.459,0.573s0.397,0.27,0.627,0.345c0.23,0.076,0.457,0.114,0.681,0.114
		c0.28,0,0.545-0.032,0.795-0.096c0.25-0.064,0.484-0.153,0.702-0.268c0.218-0.113,0.418-0.249,0.6-0.404
		c0.182-0.156,0.349-0.328,0.501-0.517l-2.754-2.706c-0.024-0.02-0.046-0.042-0.066-0.065c-0.264,0.111-0.503,0.246-0.717,0.401
		c-0.214,0.156-0.395,0.329-0.543,0.52c-0.148,0.189-0.262,0.395-0.342,0.615C38.831,223.729,38.791,223.956,38.791,224.192z"/>
	<path fill="#FFFFFF" d="M53.305,217.814c0.324,0,0.63,0.045,0.918,0.135c0.288,0.09,0.541,0.226,0.76,0.405
		s0.392,0.404,0.519,0.672s0.191,0.578,0.191,0.93c0,0.276-0.043,0.525-0.129,0.747c-0.086,0.223-0.204,0.417-0.354,0.585
		s-0.327,0.31-0.531,0.423c-0.204,0.114-0.426,0.201-0.666,0.262c0.624,0.116,1.095,0.356,1.413,0.723
		c0.318,0.366,0.477,0.823,0.477,1.371c0,0.348-0.07,0.671-0.21,0.969s-0.332,0.556-0.576,0.771
		c-0.244,0.216-0.532,0.385-0.864,0.507s-0.692,0.183-1.08,0.183c-0.484,0-0.887-0.064-1.209-0.194
		c-0.322-0.13-0.587-0.3-0.795-0.508c-0.208-0.207-0.37-0.44-0.486-0.698c-0.116-0.259-0.21-0.516-0.282-0.771l0.228-0.096
		c0.048-0.021,0.094-0.03,0.138-0.03c0.044,0,0.086,0.01,0.126,0.03c0.04,0.02,0.07,0.058,0.09,0.114l0.042,0.119
		c0.024,0.072,0.058,0.161,0.102,0.268c0.044,0.105,0.101,0.216,0.171,0.33s0.157,0.228,0.261,0.342s0.231,0.216,0.381,0.306
		c0.15,0.091,0.326,0.163,0.528,0.22c0.202,0.056,0.435,0.084,0.699,0.084c0.36,0,0.675-0.061,0.945-0.181s0.496-0.272,0.678-0.459
		c0.182-0.186,0.318-0.394,0.408-0.624c0.09-0.229,0.135-0.453,0.135-0.669c0-0.26-0.041-0.502-0.123-0.726
		s-0.219-0.417-0.411-0.579s-0.445-0.29-0.759-0.384s-0.701-0.142-1.161-0.142v-0.414c0.368-0.008,0.692-0.057,0.972-0.146
		c0.28-0.09,0.514-0.213,0.702-0.369s0.33-0.342,0.426-0.558c0.096-0.217,0.144-0.454,0.144-0.714c0-0.301-0.05-0.561-0.15-0.78
		c-0.1-0.22-0.234-0.402-0.402-0.546c-0.168-0.145-0.364-0.25-0.588-0.318s-0.458-0.102-0.702-0.102
		c-0.268,0-0.514,0.04-0.738,0.119c-0.224,0.08-0.422,0.192-0.594,0.337c-0.172,0.144-0.316,0.316-0.432,0.519
		c-0.116,0.202-0.202,0.427-0.258,0.675c-0.032,0.141-0.106,0.21-0.222,0.21c-0.028,0-0.05-0.002-0.066-0.006l-0.294-0.048
		c0.052-0.364,0.152-0.688,0.3-0.972c0.148-0.284,0.336-0.524,0.564-0.721c0.228-0.195,0.492-0.345,0.792-0.446
		C52.633,217.865,52.957,217.814,53.305,217.814z"/>
	<path fill="#FFFFFF" d="M65.713,222.152c0,0.656-0.098,1.246-0.294,1.771c-0.196,0.523-0.472,0.97-0.828,1.338
		c-0.356,0.368-0.782,0.649-1.278,0.846s-1.046,0.294-1.65,0.294h-3.096v-8.49h3.096c0.604,0,1.154,0.099,1.65,0.294
		c0.496,0.196,0.922,0.479,1.278,0.847c0.356,0.367,0.632,0.813,0.828,1.338C65.615,220.912,65.713,221.5,65.713,222.152z
		 M65.077,222.152c0-0.592-0.082-1.12-0.246-1.584s-0.395-0.855-0.693-1.176s-0.657-0.564-1.077-0.732s-0.886-0.252-1.398-0.252
		h-2.478v7.494h2.478c0.512,0,0.978-0.084,1.398-0.252s0.779-0.412,1.077-0.732c0.298-0.319,0.529-0.712,0.693-1.176
		S65.077,222.748,65.077,222.152z"/>
</g>
</svg>
